%TF.GenerationSoftware,KiCad,Pcbnew,10.0.6*%
%TF.CreationDate,2026-10-02T20:23:53+06:00*%
%TF.ProjectId,5V_to_3V3_LDO_Board,4b694361-645f-44a6-9f62-5f5072616374,rev?*%
%TF.SameCoordinates,Original*%
%TF.FileFunction,Copper,L1,Top*%
%TF.FilePolarity,Positive*%
%FSLAX46Y46*%
G04 Gerber Fmt 4.6, Leading zero omitted, Abs format (unit mm)*
G04 Created by KiCad (PCBNEW 10.0.6) date 2026-10-02 20:23:53*
%MOMM*%
%LPD*%
G01*
G04 APERTURE LIST*
G04 Aperture macros list*
%AMRoundRect*
0 Rectangle with rounded corners*
0 $1 Rounding radius*
0 $2 $3 $4 $5 $6 $7 $8 $9 X,Y pos of 4 corners*
0 Add a 4 corners polygon primitive as box body*
4,1,4,$2,$3,$4,$5,$6,$7,$8,$9,$2,$3,0*
0 Add four circle primitives for the rounded corners*
1,1,$1+$1,$2,$3*
1,1,$1+$1,$4,$5*
1,1,$1+$1,$6,$7*
1,1,$1+$1,$8,$9*
0 Add four rect primitives between the rounded corners*
20,1,$1+$1,$2,$3,$4,$5,0*
20,1,$1+$1,$4,$5,$6,$7,0*
20,1,$1+$1,$6,$7,$8,$9,0*
20,1,$1+$1,$8,$9,$2,$3,0*%
G04 Aperture macros list end*
%TA.AperFunction,SMDPad,CuDef*%
%ADD10RoundRect,0.375000X-0.625000X-0.375000X0.625000X-0.375000X0.625000X0.375000X-0.625000X0.375000X0*%
%TD*%
%TA.AperFunction,SMDPad,CuDef*%
%ADD11RoundRect,0.500000X-0.500000X-1.400000X0.500000X-1.400000X0.500000X1.400000X-0.500000X1.400000X0*%
%TD*%
%TA.AperFunction,SMDPad,CuDef*%
%ADD12RoundRect,0.250000X-0.262500X-0.450000X0.262500X-0.450000X0.262500X0.450000X-0.262500X0.450000X0*%
%TD*%
%TA.AperFunction,ComponentPad*%
%ADD13R,1.700000X1.700000*%
%TD*%
%TA.AperFunction,ComponentPad*%
%ADD14C,1.700000*%
%TD*%
%TA.AperFunction,SMDPad,CuDef*%
%ADD15RoundRect,0.243750X-0.243750X-0.456250X0.243750X-0.456250X0.243750X0.456250X-0.243750X0.456250X0*%
%TD*%
%TA.AperFunction,SMDPad,CuDef*%
%ADD16RoundRect,0.250000X0.250000X0.475000X-0.250000X0.475000X-0.250000X-0.475000X0.250000X-0.475000X0*%
%TD*%
%TA.AperFunction,Conductor*%
%ADD17C,0.200000*%
%TD*%
G04 APERTURE END LIST*
D10*
%TO.P,U1,3,VI_3*%
%TO.N,+5V*%
X136000000Y-68000000D03*
D11*
%TO.P,U1,2,VO_2*%
%TO.N,+3V3*%
X142300000Y-65700000D03*
D10*
X136000000Y-65700000D03*
%TO.P,U1,1,GND_1*%
%TO.N,GND*%
X136000000Y-63400000D03*
%TD*%
D12*
%TO.P,R1,1*%
%TO.N,+3V3*%
X145087500Y-68000000D03*
%TO.P,R1,2*%
%TO.N,Net-(D1-A)*%
X146912500Y-68000000D03*
%TD*%
D13*
%TO.P,J2,1,Pin_1_1*%
%TO.N,+3V3*%
X132500000Y-62000000D03*
D14*
%TO.P,J2,2,Pin_2_2*%
%TO.N,GND*%
X129960000Y-62000000D03*
%TD*%
D13*
%TO.P,J1,1,Pin_1_1*%
%TO.N,+5V*%
X132500000Y-71500000D03*
D14*
%TO.P,J1,2,Pin_2_2*%
%TO.N,GND*%
X129960000Y-71500000D03*
%TD*%
D15*
%TO.P,D1,1,K_1*%
%TO.N,GND*%
X145102500Y-63020000D03*
%TO.P,D1,2,A_2*%
%TO.N,Net-(D1-A)*%
X146977500Y-63020000D03*
%TD*%
D16*
%TO.P,C2,1*%
%TO.N,+3V3*%
X133450000Y-65500000D03*
%TO.P,C2,2*%
%TO.N,GND*%
X131550000Y-65500000D03*
%TD*%
%TO.P,C1,1*%
%TO.N,+5V*%
X133450000Y-68000000D03*
%TO.P,C1,2*%
%TO.N,GND*%
X131550000Y-68000000D03*
%TD*%
%TO.N,+5V*%
D17*
X133450000Y-70550000D02*
X132500000Y-71500000D01*
X133450000Y-68000000D02*
X133450000Y-70550000D01*
X133450000Y-68000000D02*
X136000000Y-68000000D01*
%TO.N,+3V3*%
X132500000Y-63000000D02*
X133450000Y-63950000D01*
X133450000Y-63950000D02*
X133450000Y-65500000D01*
X132500000Y-62000000D02*
X132500000Y-63000000D01*
X135800000Y-65500000D02*
X136000000Y-65700000D01*
X133450000Y-65500000D02*
X135800000Y-65500000D01*
%TO.N,Net-(D1-A)*%
X146977500Y-67935000D02*
X146912500Y-68000000D01*
X146977500Y-63020000D02*
X146977500Y-67935000D01*
%TO.N,+3V3*%
X136000000Y-65700000D02*
X142300000Y-65700000D01*
X144320000Y-68000000D02*
X145087500Y-68000000D01*
X142020000Y-65700000D02*
X144320000Y-68000000D01*
%TD*%
%TA.AperFunction,Conductor*%
%TO.N,GND*%
G36*
X150442539Y-57020185D02*
G01*
X150488294Y-57072989D01*
X150499500Y-57124500D01*
X150499500Y-75875500D01*
X150479815Y-75942539D01*
X150427011Y-75988294D01*
X150375500Y-75999500D01*
X123624500Y-75999500D01*
X123557461Y-75979815D01*
X123511706Y-75927011D01*
X123500500Y-75875500D01*
X123500500Y-71409493D01*
X128810000Y-71409493D01*
X128810000Y-71590506D01*
X128838317Y-71769293D01*
X128894251Y-71941444D01*
X128894252Y-71941447D01*
X128976434Y-72102734D01*
X129017667Y-72159487D01*
X129017668Y-72159487D01*
X129491980Y-71685176D01*
X129494075Y-71692993D01*
X129559901Y-71807007D01*
X129652993Y-71900099D01*
X129767007Y-71965925D01*
X129774822Y-71968019D01*
X129300510Y-72442330D01*
X129300511Y-72442331D01*
X129357265Y-72483565D01*
X129518552Y-72565747D01*
X129518555Y-72565748D01*
X129690706Y-72621682D01*
X129869494Y-72650000D01*
X130050506Y-72650000D01*
X130229293Y-72621682D01*
X130401444Y-72565748D01*
X130401447Y-72565747D01*
X130562730Y-72483568D01*
X130619487Y-72442330D01*
X130619488Y-72442329D01*
X130145178Y-71968019D01*
X130152993Y-71965925D01*
X130267007Y-71900099D01*
X130360099Y-71807007D01*
X130425925Y-71692993D01*
X130428019Y-71685177D01*
X130902329Y-72159488D01*
X130902330Y-72159487D01*
X130943568Y-72102730D01*
X131025747Y-71941447D01*
X131025748Y-71941444D01*
X131081682Y-71769293D01*
X131110000Y-71590506D01*
X131110000Y-71409493D01*
X131081682Y-71230706D01*
X131025748Y-71058555D01*
X131025747Y-71058552D01*
X130943565Y-70897265D01*
X130902331Y-70840511D01*
X130902330Y-70840510D01*
X130428018Y-71314821D01*
X130425925Y-71307007D01*
X130360099Y-71192993D01*
X130267007Y-71099901D01*
X130152993Y-71034075D01*
X130145176Y-71031980D01*
X130546908Y-70630247D01*
X131449500Y-70630247D01*
X131449500Y-72369752D01*
X131461131Y-72428229D01*
X131461132Y-72428230D01*
X131505447Y-72494552D01*
X131571769Y-72538867D01*
X131571770Y-72538868D01*
X131630247Y-72550499D01*
X131630250Y-72550500D01*
X131630252Y-72550500D01*
X133369750Y-72550500D01*
X133369751Y-72550499D01*
X133384568Y-72547552D01*
X133428229Y-72538868D01*
X133428229Y-72538867D01*
X133428231Y-72538867D01*
X133494552Y-72494552D01*
X133538867Y-72428231D01*
X133538867Y-72428229D01*
X133538868Y-72428229D01*
X133550499Y-72369752D01*
X133550500Y-72369750D01*
X133550500Y-70925833D01*
X133570185Y-70858794D01*
X133586819Y-70838152D01*
X133690460Y-70734511D01*
X133730021Y-70665989D01*
X133750500Y-70589562D01*
X133750500Y-69022595D01*
X133770185Y-68955556D01*
X133822989Y-68909801D01*
X133833523Y-68905561D01*
X133912882Y-68877793D01*
X134022150Y-68797150D01*
X134102793Y-68687882D01*
X134131290Y-68606443D01*
X134147646Y-68559701D01*
X134147646Y-68559699D01*
X134150500Y-68529269D01*
X134150500Y-68424500D01*
X134170185Y-68357461D01*
X134222989Y-68311706D01*
X134274500Y-68300500D01*
X134676006Y-68300500D01*
X134743045Y-68320185D01*
X134788800Y-68372989D01*
X134797839Y-68408843D01*
X134798970Y-68408695D01*
X134799500Y-68412720D01*
X134814313Y-68525236D01*
X134872302Y-68665233D01*
X134964549Y-68785451D01*
X135084767Y-68877698D01*
X135224764Y-68935687D01*
X135337280Y-68950500D01*
X135337287Y-68950500D01*
X136662713Y-68950500D01*
X136662720Y-68950500D01*
X136775236Y-68935687D01*
X136915233Y-68877698D01*
X137035451Y-68785451D01*
X137127698Y-68665233D01*
X137185687Y-68525236D01*
X137200500Y-68412720D01*
X137200500Y-67587280D01*
X137185687Y-67474764D01*
X137127698Y-67334767D01*
X137035451Y-67214549D01*
X136915233Y-67122302D01*
X136915229Y-67122300D01*
X136841491Y-67091757D01*
X136775236Y-67064313D01*
X136761171Y-67062461D01*
X136662727Y-67049500D01*
X136662720Y-67049500D01*
X135337280Y-67049500D01*
X135337272Y-67049500D01*
X135224764Y-67064313D01*
X135224763Y-67064313D01*
X135084770Y-67122300D01*
X135084767Y-67122301D01*
X135084767Y-67122302D01*
X134964549Y-67214549D01*
X134889682Y-67312118D01*
X134872300Y-67334770D01*
X134814313Y-67474763D01*
X134814313Y-67474764D01*
X134798970Y-67591305D01*
X134797018Y-67591048D01*
X134775708Y-67649226D01*
X134720022Y-67691425D01*
X134676006Y-67699500D01*
X134274500Y-67699500D01*
X134207461Y-67679815D01*
X134161706Y-67627011D01*
X134150500Y-67575500D01*
X134150500Y-67470730D01*
X134147646Y-67440300D01*
X134147646Y-67440298D01*
X134102793Y-67312119D01*
X134102792Y-67312117D01*
X134059091Y-67252904D01*
X134022150Y-67202850D01*
X133912882Y-67122207D01*
X133912880Y-67122206D01*
X133784700Y-67077353D01*
X133754270Y-67074500D01*
X133754266Y-67074500D01*
X133145734Y-67074500D01*
X133145730Y-67074500D01*
X133115300Y-67077353D01*
X133115298Y-67077353D01*
X132987119Y-67122206D01*
X132987117Y-67122207D01*
X132877850Y-67202850D01*
X132797207Y-67312117D01*
X132797206Y-67312119D01*
X132752353Y-67440298D01*
X132752353Y-67440300D01*
X132749500Y-67470730D01*
X132749500Y-68529269D01*
X132752353Y-68559699D01*
X132752353Y-68559701D01*
X132797206Y-68687880D01*
X132797207Y-68687882D01*
X132877850Y-68797150D01*
X132987118Y-68877793D01*
X133066458Y-68905555D01*
X133123231Y-68946275D01*
X133148978Y-69011228D01*
X133149500Y-69022595D01*
X133149500Y-70325500D01*
X133129815Y-70392539D01*
X133077011Y-70438294D01*
X133025500Y-70449500D01*
X131630247Y-70449500D01*
X131571770Y-70461131D01*
X131571769Y-70461132D01*
X131505447Y-70505447D01*
X131461132Y-70571769D01*
X131461131Y-70571770D01*
X131449500Y-70630247D01*
X130546908Y-70630247D01*
X130619487Y-70557668D01*
X130619487Y-70557667D01*
X130562734Y-70516434D01*
X130401447Y-70434252D01*
X130401444Y-70434251D01*
X130229293Y-70378317D01*
X130050506Y-70350000D01*
X129869494Y-70350000D01*
X129690706Y-70378317D01*
X129518555Y-70434251D01*
X129518552Y-70434252D01*
X129357270Y-70516431D01*
X129357268Y-70516432D01*
X129300511Y-70557667D01*
X129300511Y-70557668D01*
X129774823Y-71031980D01*
X129767007Y-71034075D01*
X129652993Y-71099901D01*
X129559901Y-71192993D01*
X129494075Y-71307007D01*
X129491980Y-71314823D01*
X129017668Y-70840511D01*
X129017667Y-70840511D01*
X128976432Y-70897268D01*
X128976431Y-70897270D01*
X128894252Y-71058552D01*
X128894251Y-71058555D01*
X128838317Y-71230706D01*
X128810000Y-71409493D01*
X123500500Y-71409493D01*
X123500500Y-68518053D01*
X130750000Y-68518053D01*
X130760613Y-68606443D01*
X130816079Y-68747095D01*
X130907435Y-68867564D01*
X131027904Y-68958920D01*
X131168556Y-69014386D01*
X131256946Y-69025000D01*
X131350000Y-69025000D01*
X131750000Y-69025000D01*
X131843054Y-69025000D01*
X131931443Y-69014386D01*
X132072095Y-68958920D01*
X132192564Y-68867564D01*
X132283920Y-68747095D01*
X132339386Y-68606443D01*
X132350000Y-68518053D01*
X132350000Y-68200000D01*
X131750000Y-68200000D01*
X131750000Y-69025000D01*
X131350000Y-69025000D01*
X131350000Y-68200000D01*
X130750000Y-68200000D01*
X130750000Y-68518053D01*
X123500500Y-68518053D01*
X123500500Y-67481946D01*
X130750000Y-67481946D01*
X130750000Y-67800000D01*
X131350000Y-67800000D01*
X131750000Y-67800000D01*
X132350000Y-67800000D01*
X132350000Y-67481946D01*
X132339386Y-67393556D01*
X132283920Y-67252904D01*
X132192564Y-67132435D01*
X132072095Y-67041079D01*
X131931443Y-66985613D01*
X131843054Y-66975000D01*
X131750000Y-66975000D01*
X131750000Y-67800000D01*
X131350000Y-67800000D01*
X131350000Y-66975000D01*
X131256946Y-66975000D01*
X131168556Y-66985613D01*
X131027904Y-67041079D01*
X130907435Y-67132435D01*
X130816079Y-67252904D01*
X130760613Y-67393556D01*
X130750000Y-67481946D01*
X123500500Y-67481946D01*
X123500500Y-66018053D01*
X130750000Y-66018053D01*
X130760613Y-66106443D01*
X130816079Y-66247095D01*
X130907435Y-66367564D01*
X131027904Y-66458920D01*
X131168556Y-66514386D01*
X131256946Y-66525000D01*
X131350000Y-66525000D01*
X131750000Y-66525000D01*
X131843054Y-66525000D01*
X131931443Y-66514386D01*
X132072095Y-66458920D01*
X132192564Y-66367564D01*
X132283920Y-66247095D01*
X132339386Y-66106443D01*
X132350000Y-66018053D01*
X132350000Y-65700000D01*
X131750000Y-65700000D01*
X131750000Y-66525000D01*
X131350000Y-66525000D01*
X131350000Y-65700000D01*
X130750000Y-65700000D01*
X130750000Y-66018053D01*
X123500500Y-66018053D01*
X123500500Y-64981946D01*
X130750000Y-64981946D01*
X130750000Y-65300000D01*
X131350000Y-65300000D01*
X131750000Y-65300000D01*
X132350000Y-65300000D01*
X132350000Y-64981946D01*
X132339386Y-64893556D01*
X132283920Y-64752904D01*
X132192564Y-64632435D01*
X132072095Y-64541079D01*
X131931443Y-64485613D01*
X131843054Y-64475000D01*
X131750000Y-64475000D01*
X131750000Y-65300000D01*
X131350000Y-65300000D01*
X131350000Y-64475000D01*
X131256946Y-64475000D01*
X131168556Y-64485613D01*
X131027904Y-64541079D01*
X130907435Y-64632435D01*
X130816079Y-64752904D01*
X130760613Y-64893556D01*
X130750000Y-64981946D01*
X123500500Y-64981946D01*
X123500500Y-61909493D01*
X128810000Y-61909493D01*
X128810000Y-62090506D01*
X128838317Y-62269293D01*
X128894251Y-62441444D01*
X128894252Y-62441447D01*
X128976434Y-62602734D01*
X129017667Y-62659487D01*
X129017668Y-62659487D01*
X129491980Y-62185176D01*
X129494075Y-62192993D01*
X129559901Y-62307007D01*
X129652993Y-62400099D01*
X129767007Y-62465925D01*
X129774822Y-62468019D01*
X129300510Y-62942330D01*
X129300511Y-62942331D01*
X129357265Y-62983565D01*
X129518552Y-63065747D01*
X129518555Y-63065748D01*
X129690706Y-63121682D01*
X129869494Y-63150000D01*
X130050506Y-63150000D01*
X130229293Y-63121682D01*
X130401444Y-63065748D01*
X130401447Y-63065747D01*
X130562730Y-62983568D01*
X130619487Y-62942330D01*
X130619488Y-62942329D01*
X130145178Y-62468019D01*
X130152993Y-62465925D01*
X130267007Y-62400099D01*
X130360099Y-62307007D01*
X130425925Y-62192993D01*
X130428019Y-62185177D01*
X130902329Y-62659488D01*
X130902330Y-62659487D01*
X130943568Y-62602730D01*
X131025747Y-62441447D01*
X131025748Y-62441444D01*
X131081682Y-62269293D01*
X131110000Y-62090506D01*
X131110000Y-61909493D01*
X131081682Y-61730706D01*
X131025748Y-61558555D01*
X131025747Y-61558552D01*
X130943565Y-61397265D01*
X130902331Y-61340511D01*
X130902330Y-61340510D01*
X130428018Y-61814821D01*
X130425925Y-61807007D01*
X130360099Y-61692993D01*
X130267007Y-61599901D01*
X130152993Y-61534075D01*
X130145176Y-61531980D01*
X130546908Y-61130247D01*
X131449500Y-61130247D01*
X131449500Y-62869752D01*
X131461131Y-62928229D01*
X131461132Y-62928230D01*
X131505447Y-62994552D01*
X131571769Y-63038867D01*
X131571770Y-63038868D01*
X131630247Y-63050499D01*
X131630250Y-63050500D01*
X131630252Y-63050500D01*
X132110578Y-63050500D01*
X132177617Y-63070185D01*
X132217966Y-63112501D01*
X132219978Y-63115986D01*
X132219979Y-63115989D01*
X132239615Y-63150000D01*
X132259539Y-63184510D01*
X133113181Y-64038152D01*
X133146666Y-64099475D01*
X133149500Y-64125833D01*
X133149500Y-64477404D01*
X133129815Y-64544443D01*
X133077011Y-64590198D01*
X133066456Y-64594445D01*
X132987117Y-64622207D01*
X132877850Y-64702850D01*
X132797207Y-64812117D01*
X132797206Y-64812119D01*
X132752353Y-64940298D01*
X132752353Y-64940300D01*
X132749500Y-64970730D01*
X132749500Y-66029269D01*
X132752353Y-66059699D01*
X132752353Y-66059701D01*
X132797206Y-66187880D01*
X132797207Y-66187882D01*
X132877850Y-66297150D01*
X132987118Y-66377793D01*
X133029845Y-66392744D01*
X133115299Y-66422646D01*
X133145730Y-66425500D01*
X133145734Y-66425500D01*
X133754270Y-66425500D01*
X133784699Y-66422646D01*
X133784701Y-66422646D01*
X133848790Y-66400219D01*
X133912882Y-66377793D01*
X134022150Y-66297150D01*
X134102793Y-66187882D01*
X134142996Y-66072989D01*
X134147646Y-66059701D01*
X134147646Y-66059699D01*
X134150500Y-66029269D01*
X134150500Y-65924500D01*
X134170185Y-65857461D01*
X134222989Y-65811706D01*
X134274500Y-65800500D01*
X134675500Y-65800500D01*
X134742539Y-65820185D01*
X134788294Y-65872989D01*
X134799500Y-65924500D01*
X134799500Y-66112727D01*
X134814313Y-66225235D01*
X134814313Y-66225236D01*
X134844100Y-66297149D01*
X134872302Y-66365233D01*
X134964549Y-66485451D01*
X135084767Y-66577698D01*
X135224764Y-66635687D01*
X135337280Y-66650500D01*
X135337287Y-66650500D01*
X136662713Y-66650500D01*
X136662720Y-66650500D01*
X136775236Y-66635687D01*
X136915233Y-66577698D01*
X137035451Y-66485451D01*
X137127698Y-66365233D01*
X137185687Y-66225236D01*
X137200500Y-66112720D01*
X137201030Y-66108695D01*
X137202981Y-66108951D01*
X137224292Y-66050774D01*
X137279978Y-66008575D01*
X137323994Y-66000500D01*
X140975500Y-66000500D01*
X141042539Y-66020185D01*
X141088294Y-66072989D01*
X141099500Y-66124500D01*
X141099500Y-67156613D01*
X141105913Y-67227192D01*
X141105913Y-67227194D01*
X141105914Y-67227196D01*
X141156522Y-67389606D01*
X141216367Y-67488602D01*
X141244530Y-67535188D01*
X141364811Y-67655469D01*
X141364813Y-67655470D01*
X141364815Y-67655472D01*
X141510394Y-67743478D01*
X141672804Y-67794086D01*
X141743384Y-67800500D01*
X141743387Y-67800500D01*
X142856613Y-67800500D01*
X142856616Y-67800500D01*
X142927196Y-67794086D01*
X143089606Y-67743478D01*
X143235185Y-67655472D01*
X143305163Y-67585493D01*
X143366484Y-67552010D01*
X143436176Y-67556994D01*
X143480524Y-67585495D01*
X144079540Y-68184511D01*
X144135489Y-68240460D01*
X144135491Y-68240461D01*
X144135495Y-68240464D01*
X144204004Y-68280017D01*
X144204011Y-68280021D01*
X144280438Y-68300500D01*
X144280441Y-68300500D01*
X144282594Y-68301077D01*
X144342254Y-68337442D01*
X144372783Y-68400290D01*
X144374500Y-68420852D01*
X144374500Y-68504269D01*
X144377353Y-68534699D01*
X144377353Y-68534701D01*
X144422206Y-68662880D01*
X144422207Y-68662882D01*
X144502850Y-68772150D01*
X144612118Y-68852793D01*
X144654331Y-68867564D01*
X144740299Y-68897646D01*
X144770730Y-68900500D01*
X144770734Y-68900500D01*
X145404270Y-68900500D01*
X145434699Y-68897646D01*
X145434701Y-68897646D01*
X145498790Y-68875219D01*
X145562882Y-68852793D01*
X145672150Y-68772150D01*
X145752793Y-68662882D01*
X145775219Y-68598790D01*
X145797646Y-68534701D01*
X145797646Y-68534699D01*
X145800500Y-68504269D01*
X145800500Y-67495730D01*
X146199500Y-67495730D01*
X146199500Y-68504269D01*
X146202353Y-68534699D01*
X146202353Y-68534701D01*
X146247206Y-68662880D01*
X146247207Y-68662882D01*
X146327850Y-68772150D01*
X146437118Y-68852793D01*
X146479331Y-68867564D01*
X146565299Y-68897646D01*
X146595730Y-68900500D01*
X146595734Y-68900500D01*
X147229270Y-68900500D01*
X147259699Y-68897646D01*
X147259701Y-68897646D01*
X147323790Y-68875219D01*
X147387882Y-68852793D01*
X147497150Y-68772150D01*
X147577793Y-68662882D01*
X147600219Y-68598790D01*
X147622646Y-68534701D01*
X147622646Y-68534699D01*
X147625500Y-68504269D01*
X147625500Y-67495730D01*
X147622646Y-67465300D01*
X147622646Y-67465298D01*
X147577793Y-67337119D01*
X147577792Y-67337117D01*
X147559342Y-67312118D01*
X147497150Y-67227850D01*
X147387882Y-67147207D01*
X147387880Y-67147206D01*
X147361045Y-67137816D01*
X147304269Y-67097094D01*
X147278522Y-67032142D01*
X147278000Y-67020775D01*
X147278000Y-64015037D01*
X147297685Y-63947998D01*
X147350489Y-63902243D01*
X147361027Y-63898002D01*
X147431179Y-63873455D01*
X147538930Y-63793930D01*
X147618455Y-63686179D01*
X147646541Y-63605913D01*
X147662684Y-63559781D01*
X147662684Y-63559778D01*
X147662686Y-63559774D01*
X147665500Y-63529764D01*
X147665500Y-62510236D01*
X147662686Y-62480226D01*
X147662684Y-62480222D01*
X147662684Y-62480218D01*
X147618455Y-62353821D01*
X147618454Y-62353819D01*
X147538930Y-62246069D01*
X147431180Y-62166545D01*
X147431178Y-62166544D01*
X147304781Y-62122315D01*
X147304769Y-62122313D01*
X147274768Y-62119500D01*
X147274764Y-62119500D01*
X146680236Y-62119500D01*
X146680232Y-62119500D01*
X146650230Y-62122313D01*
X146650218Y-62122315D01*
X146523821Y-62166544D01*
X146523819Y-62166545D01*
X146416069Y-62246069D01*
X146336545Y-62353819D01*
X146336544Y-62353821D01*
X146292315Y-62480218D01*
X146292313Y-62480230D01*
X146289500Y-62510231D01*
X146289500Y-63529768D01*
X146292313Y-63559769D01*
X146292315Y-63559781D01*
X146336544Y-63686178D01*
X146336545Y-63686180D01*
X146416069Y-63793930D01*
X146470374Y-63834009D01*
X146523821Y-63873455D01*
X146593957Y-63897996D01*
X146650731Y-63938717D01*
X146676478Y-64003670D01*
X146677000Y-64015037D01*
X146677000Y-66978963D01*
X146657315Y-67046002D01*
X146604511Y-67091757D01*
X146572570Y-67100287D01*
X146572670Y-67100744D01*
X146565298Y-67102353D01*
X146437119Y-67147206D01*
X146437117Y-67147207D01*
X146327850Y-67227850D01*
X146247207Y-67337117D01*
X146247206Y-67337119D01*
X146202353Y-67465298D01*
X146202353Y-67465300D01*
X146199500Y-67495730D01*
X145800500Y-67495730D01*
X145797646Y-67465300D01*
X145797646Y-67465298D01*
X145752793Y-67337119D01*
X145752792Y-67337117D01*
X145734342Y-67312118D01*
X145672150Y-67227850D01*
X145562882Y-67147207D01*
X145562880Y-67147206D01*
X145434700Y-67102353D01*
X145404270Y-67099500D01*
X145404266Y-67099500D01*
X144770734Y-67099500D01*
X144770730Y-67099500D01*
X144740300Y-67102353D01*
X144740298Y-67102353D01*
X144612119Y-67147206D01*
X144612117Y-67147207D01*
X144502850Y-67227850D01*
X144422207Y-67337117D01*
X144399222Y-67402804D01*
X144358500Y-67459580D01*
X144293547Y-67485326D01*
X144224985Y-67471869D01*
X144194500Y-67449529D01*
X143536819Y-66791848D01*
X143503334Y-66730525D01*
X143500500Y-66704167D01*
X143500500Y-64243386D01*
X143494086Y-64172807D01*
X143494086Y-64172804D01*
X143443478Y-64010394D01*
X143355472Y-63864815D01*
X143355470Y-63864813D01*
X143355469Y-63864811D01*
X143235188Y-63744530D01*
X143089606Y-63656522D01*
X142927196Y-63605914D01*
X142927194Y-63605913D01*
X142927192Y-63605913D01*
X142877778Y-63601423D01*
X142856616Y-63599500D01*
X141743384Y-63599500D01*
X141724145Y-63601248D01*
X141672807Y-63605913D01*
X141510393Y-63656522D01*
X141364811Y-63744530D01*
X141244530Y-63864811D01*
X141156522Y-64010393D01*
X141105913Y-64172807D01*
X141099500Y-64243386D01*
X141099500Y-65275500D01*
X141079815Y-65342539D01*
X141027011Y-65388294D01*
X140975500Y-65399500D01*
X137323994Y-65399500D01*
X137256955Y-65379815D01*
X137211200Y-65327011D01*
X137202160Y-65291156D01*
X137201030Y-65291305D01*
X137198949Y-65275500D01*
X137185687Y-65174764D01*
X137127698Y-65034767D01*
X137035451Y-64914549D01*
X136915233Y-64822302D01*
X136915229Y-64822300D01*
X136851801Y-64796027D01*
X136775236Y-64764313D01*
X136761171Y-64762461D01*
X136662727Y-64749500D01*
X136662720Y-64749500D01*
X135337280Y-64749500D01*
X135337272Y-64749500D01*
X135224764Y-64764313D01*
X135224763Y-64764313D01*
X135084770Y-64822300D01*
X135084767Y-64822301D01*
X135084767Y-64822302D01*
X134964549Y-64914549D01*
X134944790Y-64940300D01*
X134872300Y-65034770D01*
X134835774Y-65122953D01*
X134791933Y-65177356D01*
X134725639Y-65199421D01*
X134721213Y-65199500D01*
X134274500Y-65199500D01*
X134207461Y-65179815D01*
X134161706Y-65127011D01*
X134150500Y-65075500D01*
X134150500Y-64970730D01*
X134147646Y-64940300D01*
X134147646Y-64940298D01*
X134114006Y-64844163D01*
X134102793Y-64812118D01*
X134022150Y-64702850D01*
X133912882Y-64622207D01*
X133833544Y-64594445D01*
X133776769Y-64553723D01*
X133751022Y-64488770D01*
X133750500Y-64477404D01*
X133750500Y-63910439D01*
X133747050Y-63897562D01*
X133730021Y-63834011D01*
X133727455Y-63829566D01*
X134700001Y-63829566D01*
X134706178Y-63897561D01*
X134706181Y-63897572D01*
X134754944Y-64054060D01*
X134754946Y-64054064D01*
X134839743Y-64194337D01*
X134839747Y-64194342D01*
X134955657Y-64310252D01*
X134955662Y-64310256D01*
X135095934Y-64395052D01*
X135252437Y-64443820D01*
X135320443Y-64449999D01*
X135799999Y-64449999D01*
X136200000Y-64449999D01*
X136679565Y-64449999D01*
X136747561Y-64443821D01*
X136747572Y-64443818D01*
X136904060Y-64395055D01*
X136904064Y-64395053D01*
X137044337Y-64310256D01*
X137044342Y-64310252D01*
X137160252Y-64194342D01*
X137160256Y-64194337D01*
X137245052Y-64054065D01*
X137293820Y-63897562D01*
X137300000Y-63829556D01*
X137300000Y-63600000D01*
X136200000Y-63600000D01*
X136200000Y-64449999D01*
X135799999Y-64449999D01*
X135800000Y-64449998D01*
X135800000Y-63600000D01*
X134700001Y-63600000D01*
X134700001Y-63829566D01*
X133727455Y-63829566D01*
X133727449Y-63829556D01*
X133690464Y-63765495D01*
X133690458Y-63765487D01*
X133443789Y-63518818D01*
X144315000Y-63518818D01*
X144325493Y-63606198D01*
X144325493Y-63606199D01*
X144380330Y-63745255D01*
X144470645Y-63864354D01*
X144589744Y-63954669D01*
X144728801Y-64009506D01*
X144816182Y-64020000D01*
X144902500Y-64020000D01*
X145302500Y-64020000D01*
X145388818Y-64020000D01*
X145476198Y-64009506D01*
X145476199Y-64009506D01*
X145615255Y-63954669D01*
X145734354Y-63864354D01*
X145824669Y-63745255D01*
X145879506Y-63606199D01*
X145879506Y-63606198D01*
X145890000Y-63518818D01*
X145890000Y-63220000D01*
X145302500Y-63220000D01*
X145302500Y-64020000D01*
X144902500Y-64020000D01*
X144902500Y-63220000D01*
X144315000Y-63220000D01*
X144315000Y-63518818D01*
X133443789Y-63518818D01*
X133187152Y-63262181D01*
X133153667Y-63200858D01*
X133158651Y-63131166D01*
X133200523Y-63075233D01*
X133265987Y-63050816D01*
X133274833Y-63050500D01*
X133369750Y-63050500D01*
X133369751Y-63050499D01*
X133384568Y-63047552D01*
X133428229Y-63038868D01*
X133428229Y-63038867D01*
X133428231Y-63038867D01*
X133494552Y-62994552D01*
X133510661Y-62970443D01*
X134700000Y-62970443D01*
X134700000Y-63200000D01*
X135800000Y-63200000D01*
X136200000Y-63200000D01*
X137299999Y-63200000D01*
X137299999Y-62970433D01*
X137293821Y-62902438D01*
X137293818Y-62902427D01*
X137245055Y-62745939D01*
X137245053Y-62745935D01*
X137160256Y-62605662D01*
X137160252Y-62605657D01*
X137075776Y-62521181D01*
X144315000Y-62521181D01*
X144315000Y-62820000D01*
X144902500Y-62820000D01*
X145302500Y-62820000D01*
X145890000Y-62820000D01*
X145890000Y-62521181D01*
X145879506Y-62433801D01*
X145879506Y-62433800D01*
X145824669Y-62294744D01*
X145734354Y-62175645D01*
X145615255Y-62085330D01*
X145476198Y-62030493D01*
X145388818Y-62020000D01*
X145302500Y-62020000D01*
X145302500Y-62820000D01*
X144902500Y-62820000D01*
X144902500Y-62020000D01*
X144816182Y-62020000D01*
X144728801Y-62030493D01*
X144728800Y-62030493D01*
X144589744Y-62085330D01*
X144470645Y-62175645D01*
X144380330Y-62294744D01*
X144325493Y-62433800D01*
X144325493Y-62433801D01*
X144315000Y-62521181D01*
X137075776Y-62521181D01*
X137044342Y-62489747D01*
X137044337Y-62489743D01*
X136904065Y-62404947D01*
X136747562Y-62356179D01*
X136679556Y-62350000D01*
X136200000Y-62350000D01*
X136200000Y-63200000D01*
X135800000Y-63200000D01*
X135800000Y-62350000D01*
X135320433Y-62350000D01*
X135252438Y-62356178D01*
X135252427Y-62356181D01*
X135095939Y-62404944D01*
X135095935Y-62404946D01*
X134955662Y-62489743D01*
X134955657Y-62489747D01*
X134839747Y-62605657D01*
X134839743Y-62605662D01*
X134754947Y-62745934D01*
X134706179Y-62902437D01*
X134700000Y-62970443D01*
X133510661Y-62970443D01*
X133538867Y-62928231D01*
X133538867Y-62928229D01*
X133538868Y-62928229D01*
X133550499Y-62869752D01*
X133550500Y-62869750D01*
X133550500Y-61130249D01*
X133550499Y-61130247D01*
X133538868Y-61071770D01*
X133538867Y-61071769D01*
X133494552Y-61005447D01*
X133428230Y-60961132D01*
X133428229Y-60961131D01*
X133369752Y-60949500D01*
X133369748Y-60949500D01*
X131630252Y-60949500D01*
X131630247Y-60949500D01*
X131571770Y-60961131D01*
X131571769Y-60961132D01*
X131505447Y-61005447D01*
X131461132Y-61071769D01*
X131461131Y-61071770D01*
X131449500Y-61130247D01*
X130546908Y-61130247D01*
X130619487Y-61057668D01*
X130619487Y-61057667D01*
X130562734Y-61016434D01*
X130401447Y-60934252D01*
X130401444Y-60934251D01*
X130229293Y-60878317D01*
X130050506Y-60850000D01*
X129869494Y-60850000D01*
X129690706Y-60878317D01*
X129518555Y-60934251D01*
X129518552Y-60934252D01*
X129357270Y-61016431D01*
X129357268Y-61016432D01*
X129300511Y-61057667D01*
X129300511Y-61057668D01*
X129774823Y-61531980D01*
X129767007Y-61534075D01*
X129652993Y-61599901D01*
X129559901Y-61692993D01*
X129494075Y-61807007D01*
X129491980Y-61814823D01*
X129017668Y-61340511D01*
X129017667Y-61340511D01*
X128976432Y-61397268D01*
X128976431Y-61397270D01*
X128894252Y-61558552D01*
X128894251Y-61558555D01*
X128838317Y-61730706D01*
X128810000Y-61909493D01*
X123500500Y-61909493D01*
X123500500Y-57124500D01*
X123520185Y-57057461D01*
X123572989Y-57011706D01*
X123624500Y-57000500D01*
X150375500Y-57000500D01*
X150442539Y-57020185D01*
G37*
%TD.AperFunction*%
%TD*%
M02*
