%TF.GenerationSoftware,KiCad,Pcbnew,10.0.6*%
%TF.CreationDate,2026-10-09T17:42:04+06:00*%
%TF.ProjectId,USB_C_3V3_Interface_Board,5553425f-435f-4335-9633-5f496e746572,rev?*%
%TF.SameCoordinates,Original*%
%TF.FileFunction,Copper,L2,Bot*%
%TF.FilePolarity,Positive*%
%FSLAX46Y46*%
G04 Gerber Fmt 4.6, Leading zero omitted, Abs format (unit mm)*
G04 Created by KiCad (PCBNEW 10.0.6) date 2026-10-09 17:42:04*
%MOMM*%
%LPD*%
G01*
G04 APERTURE LIST*
%TA.AperFunction,ComponentPad*%
%ADD10R,1.700000X1.700000*%
%TD*%
%TA.AperFunction,ComponentPad*%
%ADD11C,1.700000*%
%TD*%
%TA.AperFunction,ComponentPad*%
%ADD12O,1.000000X2.100000*%
%TD*%
%TA.AperFunction,ComponentPad*%
%ADD13O,1.000000X1.800000*%
%TD*%
%TA.AperFunction,ViaPad*%
%ADD14C,0.600000*%
%TD*%
G04 APERTURE END LIST*
D10*
%TO.P,J3,1,Pin_1_1*%
%TO.N,+3V3*%
X155500000Y-41760000D03*
D11*
%TO.P,J3,2,Pin_2_2*%
%TO.N,GND*%
X155500000Y-44300000D03*
%TO.P,J3,3,Pin_3_3*%
%TO.N,/GPIO1*%
X155500000Y-46840000D03*
%TO.P,J3,4,Pin_4_4*%
%TO.N,/GPIO2*%
X155500000Y-49380000D03*
%TD*%
D10*
%TO.P,J2,1,Pin_1_1*%
%TO.N,+3V3*%
X144820000Y-37700000D03*
D11*
%TO.P,J2,2,Pin_2_2*%
%TO.N,GND*%
X147360000Y-37700000D03*
%TO.P,J2,3,Pin_3_3*%
%TO.N,/SDA*%
X149900000Y-37700000D03*
%TO.P,J2,4,Pin_4_4*%
%TO.N,/SCL*%
X152440000Y-37700000D03*
%TD*%
D12*
%TO.P,J1,SH,SHIELD_SH*%
%TO.N,GND*%
X143435000Y-52890000D03*
D13*
X143435000Y-57070000D03*
D12*
X152075000Y-52890000D03*
D13*
X152075000Y-57070000D03*
%TD*%
D14*
%TO.N,GND*%
X151000000Y-51500000D03*
X144500000Y-51500000D03*
X143500000Y-50750000D03*
X151874797Y-47859162D03*
X150250000Y-47750000D03*
X148500000Y-47750000D03*
X144750000Y-41000000D03*
X140750000Y-45750000D03*
X139750000Y-47500000D03*
%TD*%
%TA.AperFunction,Conductor*%
%TO.N,GND*%
G36*
X158442539Y-34723691D02*
G01*
X158488294Y-34776495D01*
X158499500Y-34828006D01*
X158499500Y-59079006D01*
X158479815Y-59146045D01*
X158427011Y-59191800D01*
X158375500Y-59203006D01*
X137624500Y-59203006D01*
X137557461Y-59183321D01*
X137511706Y-59130517D01*
X137500500Y-59079006D01*
X137500500Y-56596126D01*
X142685000Y-56596126D01*
X142685000Y-56920000D01*
X143135000Y-56920000D01*
X143135000Y-57220000D01*
X142685000Y-57220000D01*
X142685000Y-57543873D01*
X142713820Y-57688759D01*
X142713822Y-57688767D01*
X142770357Y-57825254D01*
X142770362Y-57825264D01*
X142852436Y-57948096D01*
X142852439Y-57948100D01*
X142956899Y-58052560D01*
X142956903Y-58052563D01*
X143079735Y-58134637D01*
X143079745Y-58134642D01*
X143216230Y-58191176D01*
X143216240Y-58191179D01*
X143284999Y-58204856D01*
X143285000Y-58204856D01*
X143285000Y-57729808D01*
X143319204Y-57749556D01*
X143395504Y-57770000D01*
X143474496Y-57770000D01*
X143550796Y-57749556D01*
X143585000Y-57729808D01*
X143585000Y-58204856D01*
X143653759Y-58191179D01*
X143653769Y-58191176D01*
X143790254Y-58134642D01*
X143790264Y-58134637D01*
X143913096Y-58052563D01*
X143913100Y-58052560D01*
X144017560Y-57948100D01*
X144017563Y-57948096D01*
X144099637Y-57825264D01*
X144099642Y-57825254D01*
X144156177Y-57688767D01*
X144156179Y-57688759D01*
X144184999Y-57543873D01*
X144185000Y-57543871D01*
X144185000Y-57220000D01*
X143735000Y-57220000D01*
X143735000Y-56920000D01*
X144185000Y-56920000D01*
X144185000Y-56596128D01*
X144184999Y-56596126D01*
X151325000Y-56596126D01*
X151325000Y-56920000D01*
X151775000Y-56920000D01*
X151775000Y-57220000D01*
X151325000Y-57220000D01*
X151325000Y-57543873D01*
X151353820Y-57688759D01*
X151353822Y-57688767D01*
X151410357Y-57825254D01*
X151410362Y-57825264D01*
X151492436Y-57948096D01*
X151492439Y-57948100D01*
X151596899Y-58052560D01*
X151596903Y-58052563D01*
X151719735Y-58134637D01*
X151719745Y-58134642D01*
X151856230Y-58191176D01*
X151856240Y-58191179D01*
X151924999Y-58204856D01*
X151925000Y-58204856D01*
X151925000Y-57729808D01*
X151959204Y-57749556D01*
X152035504Y-57770000D01*
X152114496Y-57770000D01*
X152190796Y-57749556D01*
X152225000Y-57729808D01*
X152225000Y-58204856D01*
X152293759Y-58191179D01*
X152293769Y-58191176D01*
X152430254Y-58134642D01*
X152430264Y-58134637D01*
X152553096Y-58052563D01*
X152553100Y-58052560D01*
X152657560Y-57948100D01*
X152657563Y-57948096D01*
X152739637Y-57825264D01*
X152739642Y-57825254D01*
X152796177Y-57688767D01*
X152796179Y-57688759D01*
X152824999Y-57543873D01*
X152825000Y-57543871D01*
X152825000Y-57220000D01*
X152375000Y-57220000D01*
X152375000Y-56920000D01*
X152825000Y-56920000D01*
X152825000Y-56596128D01*
X152824999Y-56596126D01*
X152796179Y-56451240D01*
X152796177Y-56451232D01*
X152739642Y-56314745D01*
X152739637Y-56314735D01*
X152657563Y-56191903D01*
X152657560Y-56191899D01*
X152553100Y-56087439D01*
X152553096Y-56087436D01*
X152430264Y-56005362D01*
X152430254Y-56005357D01*
X152293767Y-55948822D01*
X152293761Y-55948820D01*
X152225000Y-55935142D01*
X152225000Y-56410191D01*
X152190796Y-56390444D01*
X152114496Y-56370000D01*
X152035504Y-56370000D01*
X151959204Y-56390444D01*
X151925000Y-56410191D01*
X151925000Y-55935143D01*
X151924999Y-55935142D01*
X151856238Y-55948820D01*
X151856232Y-55948822D01*
X151719745Y-56005357D01*
X151719735Y-56005362D01*
X151596903Y-56087436D01*
X151596899Y-56087439D01*
X151492439Y-56191899D01*
X151492436Y-56191903D01*
X151410362Y-56314735D01*
X151410357Y-56314745D01*
X151353822Y-56451232D01*
X151353820Y-56451240D01*
X151325000Y-56596126D01*
X144184999Y-56596126D01*
X144156179Y-56451240D01*
X144156177Y-56451232D01*
X144099642Y-56314745D01*
X144099637Y-56314735D01*
X144017563Y-56191903D01*
X144017560Y-56191899D01*
X143913100Y-56087439D01*
X143913096Y-56087436D01*
X143790264Y-56005362D01*
X143790254Y-56005357D01*
X143653767Y-55948822D01*
X143653761Y-55948820D01*
X143585000Y-55935142D01*
X143585000Y-56410191D01*
X143550796Y-56390444D01*
X143474496Y-56370000D01*
X143395504Y-56370000D01*
X143319204Y-56390444D01*
X143285000Y-56410191D01*
X143285000Y-55935143D01*
X143284999Y-55935142D01*
X143216238Y-55948820D01*
X143216232Y-55948822D01*
X143079745Y-56005357D01*
X143079735Y-56005362D01*
X142956903Y-56087436D01*
X142956899Y-56087439D01*
X142852439Y-56191899D01*
X142852436Y-56191903D01*
X142770362Y-56314735D01*
X142770357Y-56314745D01*
X142713822Y-56451232D01*
X142713820Y-56451240D01*
X142685000Y-56596126D01*
X137500500Y-56596126D01*
X137500500Y-52266126D01*
X142685000Y-52266126D01*
X142685000Y-52740000D01*
X143135000Y-52740000D01*
X143135000Y-53040000D01*
X142685000Y-53040000D01*
X142685000Y-53513873D01*
X142713820Y-53658759D01*
X142713822Y-53658767D01*
X142770357Y-53795254D01*
X142770362Y-53795264D01*
X142852436Y-53918096D01*
X142852439Y-53918100D01*
X142956899Y-54022560D01*
X142956903Y-54022563D01*
X143079735Y-54104637D01*
X143079745Y-54104642D01*
X143216230Y-54161176D01*
X143216240Y-54161179D01*
X143284999Y-54174856D01*
X143285000Y-54174856D01*
X143285000Y-53699808D01*
X143319204Y-53719556D01*
X143395504Y-53740000D01*
X143474496Y-53740000D01*
X143550796Y-53719556D01*
X143585000Y-53699808D01*
X143585000Y-54174856D01*
X143653759Y-54161179D01*
X143653769Y-54161176D01*
X143790254Y-54104642D01*
X143790264Y-54104637D01*
X143913096Y-54022563D01*
X143913100Y-54022560D01*
X144017560Y-53918100D01*
X144017563Y-53918096D01*
X144099637Y-53795264D01*
X144099644Y-53795251D01*
X144143276Y-53689913D01*
X144187116Y-53635509D01*
X144253410Y-53613444D01*
X144321110Y-53630723D01*
X144365223Y-53675364D01*
X144404480Y-53743358D01*
X144404483Y-53743362D01*
X144404485Y-53743365D01*
X144511635Y-53850515D01*
X144642865Y-53926281D01*
X144789234Y-53965500D01*
X144789236Y-53965500D01*
X144940764Y-53965500D01*
X144940766Y-53965500D01*
X145087135Y-53926281D01*
X145218365Y-53850515D01*
X145325515Y-53743365D01*
X145401281Y-53612135D01*
X145440500Y-53465766D01*
X145440500Y-53314234D01*
X150069500Y-53314234D01*
X150069500Y-53465765D01*
X150108719Y-53612136D01*
X150122214Y-53635509D01*
X150184485Y-53743365D01*
X150291635Y-53850515D01*
X150422865Y-53926281D01*
X150569234Y-53965500D01*
X150569236Y-53965500D01*
X150720764Y-53965500D01*
X150720766Y-53965500D01*
X150867135Y-53926281D01*
X150998365Y-53850515D01*
X151105515Y-53743365D01*
X151144776Y-53675364D01*
X151195342Y-53627149D01*
X151263949Y-53613927D01*
X151328814Y-53639895D01*
X151366723Y-53689912D01*
X151410357Y-53795254D01*
X151410362Y-53795264D01*
X151492436Y-53918096D01*
X151492439Y-53918100D01*
X151596899Y-54022560D01*
X151596903Y-54022563D01*
X151719735Y-54104637D01*
X151719745Y-54104642D01*
X151856230Y-54161176D01*
X151856240Y-54161179D01*
X151924999Y-54174856D01*
X151925000Y-54174856D01*
X151925000Y-53699808D01*
X151959204Y-53719556D01*
X152035504Y-53740000D01*
X152114496Y-53740000D01*
X152190796Y-53719556D01*
X152225000Y-53699808D01*
X152225000Y-54174856D01*
X152293759Y-54161179D01*
X152293769Y-54161176D01*
X152430254Y-54104642D01*
X152430264Y-54104637D01*
X152553096Y-54022563D01*
X152553100Y-54022560D01*
X152657560Y-53918100D01*
X152657563Y-53918096D01*
X152739637Y-53795264D01*
X152739642Y-53795254D01*
X152796177Y-53658767D01*
X152796179Y-53658759D01*
X152824999Y-53513873D01*
X152825000Y-53513871D01*
X152825000Y-53040000D01*
X152375000Y-53040000D01*
X152375000Y-52740000D01*
X152825000Y-52740000D01*
X152825000Y-52266128D01*
X152824999Y-52266126D01*
X152796179Y-52121240D01*
X152796177Y-52121232D01*
X152739642Y-51984745D01*
X152739637Y-51984735D01*
X152657563Y-51861903D01*
X152657560Y-51861899D01*
X152553100Y-51757439D01*
X152553096Y-51757436D01*
X152430264Y-51675362D01*
X152430254Y-51675357D01*
X152293767Y-51618822D01*
X152293761Y-51618820D01*
X152225000Y-51605142D01*
X152225000Y-52080191D01*
X152190796Y-52060444D01*
X152114496Y-52040000D01*
X152035504Y-52040000D01*
X151959204Y-52060444D01*
X151925000Y-52080191D01*
X151925000Y-51605143D01*
X151924999Y-51605142D01*
X151856238Y-51618820D01*
X151856232Y-51618822D01*
X151719745Y-51675357D01*
X151719735Y-51675362D01*
X151596903Y-51757436D01*
X151596899Y-51757439D01*
X151492439Y-51861899D01*
X151492436Y-51861903D01*
X151410362Y-51984735D01*
X151410357Y-51984745D01*
X151353822Y-52121232D01*
X151353820Y-52121240D01*
X151325000Y-52266126D01*
X151325000Y-52740000D01*
X151775000Y-52740000D01*
X151775000Y-53040000D01*
X151325000Y-53040000D01*
X151301352Y-53063648D01*
X151240028Y-53097132D01*
X151170336Y-53092147D01*
X151114403Y-53050276D01*
X151106287Y-53037972D01*
X151106211Y-53037841D01*
X151105515Y-53036635D01*
X150998365Y-52929485D01*
X150932750Y-52891602D01*
X150867136Y-52853719D01*
X150793950Y-52834109D01*
X150720766Y-52814500D01*
X150569234Y-52814500D01*
X150422863Y-52853719D01*
X150291635Y-52929485D01*
X150291632Y-52929487D01*
X150184487Y-53036632D01*
X150184485Y-53036635D01*
X150108719Y-53167863D01*
X150069500Y-53314234D01*
X145440500Y-53314234D01*
X145401281Y-53167865D01*
X145325515Y-53036635D01*
X145218365Y-52929485D01*
X145152750Y-52891602D01*
X145087136Y-52853719D01*
X145013950Y-52834109D01*
X144940766Y-52814500D01*
X144789234Y-52814500D01*
X144642863Y-52853719D01*
X144511635Y-52929485D01*
X144511632Y-52929487D01*
X144404487Y-53036632D01*
X144404476Y-53036647D01*
X144403706Y-53037981D01*
X144402763Y-53038879D01*
X144399537Y-53043084D01*
X144398880Y-53042580D01*
X144353133Y-53086190D01*
X144284524Y-53099403D01*
X144219663Y-53073426D01*
X144208647Y-53063647D01*
X144185000Y-53040000D01*
X143735000Y-53040000D01*
X143735000Y-52740000D01*
X144185000Y-52740000D01*
X144185000Y-52266128D01*
X144184999Y-52266126D01*
X144156179Y-52121240D01*
X144156177Y-52121232D01*
X144099642Y-51984745D01*
X144099637Y-51984735D01*
X144017563Y-51861903D01*
X144017560Y-51861899D01*
X143913100Y-51757439D01*
X143913096Y-51757436D01*
X143790264Y-51675362D01*
X143790254Y-51675357D01*
X143653767Y-51618822D01*
X143653761Y-51618820D01*
X143585000Y-51605142D01*
X143585000Y-52080191D01*
X143550796Y-52060444D01*
X143474496Y-52040000D01*
X143395504Y-52040000D01*
X143319204Y-52060444D01*
X143285000Y-52080191D01*
X143285000Y-51605143D01*
X143284999Y-51605142D01*
X143216238Y-51618820D01*
X143216232Y-51618822D01*
X143079745Y-51675357D01*
X143079735Y-51675362D01*
X142956903Y-51757436D01*
X142956899Y-51757439D01*
X142852439Y-51861899D01*
X142852436Y-51861903D01*
X142770362Y-51984735D01*
X142770357Y-51984745D01*
X142713822Y-52121232D01*
X142713820Y-52121240D01*
X142685000Y-52266126D01*
X137500500Y-52266126D01*
X137500500Y-49276530D01*
X154449500Y-49276530D01*
X154449500Y-49483469D01*
X154489868Y-49686412D01*
X154489870Y-49686420D01*
X154569058Y-49877596D01*
X154684024Y-50049657D01*
X154830342Y-50195975D01*
X154830345Y-50195977D01*
X155002402Y-50310941D01*
X155193580Y-50390130D01*
X155396530Y-50430499D01*
X155396534Y-50430500D01*
X155396535Y-50430500D01*
X155603466Y-50430500D01*
X155603467Y-50430499D01*
X155806420Y-50390130D01*
X155997598Y-50310941D01*
X156169655Y-50195977D01*
X156315977Y-50049655D01*
X156430941Y-49877598D01*
X156510130Y-49686420D01*
X156550500Y-49483465D01*
X156550500Y-49276535D01*
X156510130Y-49073580D01*
X156430941Y-48882402D01*
X156315977Y-48710345D01*
X156315975Y-48710342D01*
X156169657Y-48564024D01*
X156083626Y-48506541D01*
X155997598Y-48449059D01*
X155806420Y-48369870D01*
X155806412Y-48369868D01*
X155603469Y-48329500D01*
X155603465Y-48329500D01*
X155396535Y-48329500D01*
X155396530Y-48329500D01*
X155193587Y-48369868D01*
X155193579Y-48369870D01*
X155002403Y-48449058D01*
X154830342Y-48564024D01*
X154684024Y-48710342D01*
X154569058Y-48882403D01*
X154489870Y-49073579D01*
X154489868Y-49073587D01*
X154449500Y-49276530D01*
X137500500Y-49276530D01*
X137500500Y-46736530D01*
X154449500Y-46736530D01*
X154449500Y-46943469D01*
X154489868Y-47146412D01*
X154489870Y-47146420D01*
X154569058Y-47337596D01*
X154684024Y-47509657D01*
X154830342Y-47655975D01*
X154830345Y-47655977D01*
X155002402Y-47770941D01*
X155193580Y-47850130D01*
X155396530Y-47890499D01*
X155396534Y-47890500D01*
X155396535Y-47890500D01*
X155603466Y-47890500D01*
X155603467Y-47890499D01*
X155806420Y-47850130D01*
X155997598Y-47770941D01*
X156169655Y-47655977D01*
X156315977Y-47509655D01*
X156430941Y-47337598D01*
X156510130Y-47146420D01*
X156550500Y-46943465D01*
X156550500Y-46736535D01*
X156510130Y-46533580D01*
X156430941Y-46342402D01*
X156315977Y-46170345D01*
X156315975Y-46170342D01*
X156169657Y-46024024D01*
X156083626Y-45966541D01*
X155997598Y-45909059D01*
X155806420Y-45829870D01*
X155806412Y-45829868D01*
X155603469Y-45789500D01*
X155603465Y-45789500D01*
X155396535Y-45789500D01*
X155396530Y-45789500D01*
X155193587Y-45829868D01*
X155193579Y-45829870D01*
X155002403Y-45909058D01*
X154830342Y-46024024D01*
X154684024Y-46170342D01*
X154569058Y-46342403D01*
X154489870Y-46533579D01*
X154489868Y-46533587D01*
X154449500Y-46736530D01*
X137500500Y-46736530D01*
X137500500Y-44213428D01*
X154400000Y-44213428D01*
X154400000Y-44386571D01*
X154427085Y-44557584D01*
X154480591Y-44722257D01*
X154559198Y-44876528D01*
X154623219Y-44964646D01*
X154623220Y-44964647D01*
X155056329Y-44531538D01*
X155099901Y-44607007D01*
X155192993Y-44700099D01*
X155268460Y-44743670D01*
X154835351Y-45176778D01*
X154835352Y-45176780D01*
X154923471Y-45240801D01*
X155077742Y-45319408D01*
X155242415Y-45372914D01*
X155413429Y-45400000D01*
X155586571Y-45400000D01*
X155757584Y-45372914D01*
X155922257Y-45319408D01*
X156076525Y-45240803D01*
X156164646Y-45176778D01*
X156164647Y-45176778D01*
X155731539Y-44743670D01*
X155807007Y-44700099D01*
X155900099Y-44607007D01*
X155943670Y-44531538D01*
X156376778Y-44964647D01*
X156376778Y-44964646D01*
X156440803Y-44876525D01*
X156519408Y-44722257D01*
X156572914Y-44557584D01*
X156600000Y-44386571D01*
X156600000Y-44213428D01*
X156572914Y-44042415D01*
X156519408Y-43877742D01*
X156440801Y-43723471D01*
X156376780Y-43635352D01*
X156376778Y-43635351D01*
X155943670Y-44068460D01*
X155900099Y-43992993D01*
X155807007Y-43899901D01*
X155731538Y-43856329D01*
X156164647Y-43423220D01*
X156164646Y-43423219D01*
X156076528Y-43359198D01*
X155922257Y-43280591D01*
X155757584Y-43227085D01*
X155586571Y-43200000D01*
X155413429Y-43200000D01*
X155242415Y-43227085D01*
X155077742Y-43280591D01*
X154923478Y-43359194D01*
X154835352Y-43423220D01*
X155268461Y-43856329D01*
X155192993Y-43899901D01*
X155099901Y-43992993D01*
X155056329Y-44068461D01*
X154623220Y-43635352D01*
X154559194Y-43723478D01*
X154480591Y-43877742D01*
X154427085Y-44042415D01*
X154400000Y-44213428D01*
X137500500Y-44213428D01*
X137500500Y-40890247D01*
X154449500Y-40890247D01*
X154449500Y-42629752D01*
X154461131Y-42688229D01*
X154461132Y-42688230D01*
X154505447Y-42754552D01*
X154571769Y-42798867D01*
X154571770Y-42798868D01*
X154630247Y-42810499D01*
X154630250Y-42810500D01*
X154630252Y-42810500D01*
X156369750Y-42810500D01*
X156369751Y-42810499D01*
X156384568Y-42807552D01*
X156428229Y-42798868D01*
X156428229Y-42798867D01*
X156428231Y-42798867D01*
X156494552Y-42754552D01*
X156538867Y-42688231D01*
X156538867Y-42688229D01*
X156538868Y-42688229D01*
X156550499Y-42629752D01*
X156550500Y-42629750D01*
X156550500Y-40890249D01*
X156550499Y-40890247D01*
X156538868Y-40831770D01*
X156538867Y-40831769D01*
X156494552Y-40765447D01*
X156428230Y-40721132D01*
X156428229Y-40721131D01*
X156369752Y-40709500D01*
X156369748Y-40709500D01*
X154630252Y-40709500D01*
X154630247Y-40709500D01*
X154571770Y-40721131D01*
X154571769Y-40721132D01*
X154505447Y-40765447D01*
X154461132Y-40831769D01*
X154461131Y-40831770D01*
X154449500Y-40890247D01*
X137500500Y-40890247D01*
X137500500Y-36830247D01*
X143769500Y-36830247D01*
X143769500Y-38569752D01*
X143781131Y-38628229D01*
X143781132Y-38628230D01*
X143825447Y-38694552D01*
X143891769Y-38738867D01*
X143891770Y-38738868D01*
X143950247Y-38750499D01*
X143950250Y-38750500D01*
X143950252Y-38750500D01*
X145689750Y-38750500D01*
X145689751Y-38750499D01*
X145704568Y-38747552D01*
X145748229Y-38738868D01*
X145748229Y-38738867D01*
X145748231Y-38738867D01*
X145814552Y-38694552D01*
X145858867Y-38628231D01*
X145858867Y-38628229D01*
X145858868Y-38628229D01*
X145870499Y-38569752D01*
X145870500Y-38569750D01*
X145870500Y-37613428D01*
X146260000Y-37613428D01*
X146260000Y-37786571D01*
X146287085Y-37957584D01*
X146340591Y-38122257D01*
X146419198Y-38276528D01*
X146483219Y-38364646D01*
X146483220Y-38364647D01*
X146916329Y-37931538D01*
X146959901Y-38007007D01*
X147052993Y-38100099D01*
X147128460Y-38143670D01*
X146695351Y-38576778D01*
X146695352Y-38576780D01*
X146783471Y-38640801D01*
X146937742Y-38719408D01*
X147102415Y-38772914D01*
X147273429Y-38800000D01*
X147446571Y-38800000D01*
X147617584Y-38772914D01*
X147782257Y-38719408D01*
X147936525Y-38640803D01*
X148024646Y-38576778D01*
X148024647Y-38576778D01*
X147591539Y-38143670D01*
X147667007Y-38100099D01*
X147760099Y-38007007D01*
X147803670Y-37931538D01*
X148236778Y-38364647D01*
X148236778Y-38364646D01*
X148300803Y-38276525D01*
X148379408Y-38122257D01*
X148432914Y-37957584D01*
X148460000Y-37786571D01*
X148460000Y-37613430D01*
X148459431Y-37609837D01*
X148459431Y-37609835D01*
X148457324Y-37596530D01*
X148849500Y-37596530D01*
X148849500Y-37803469D01*
X148889868Y-38006412D01*
X148889870Y-38006420D01*
X148969058Y-38197596D01*
X149084024Y-38369657D01*
X149230342Y-38515975D01*
X149230345Y-38515977D01*
X149402402Y-38630941D01*
X149593580Y-38710130D01*
X149738052Y-38738867D01*
X149796530Y-38750499D01*
X149796534Y-38750500D01*
X149796535Y-38750500D01*
X150003466Y-38750500D01*
X150003467Y-38750499D01*
X150206420Y-38710130D01*
X150397598Y-38630941D01*
X150569655Y-38515977D01*
X150715977Y-38369655D01*
X150830941Y-38197598D01*
X150910130Y-38006420D01*
X150950500Y-37803465D01*
X150950500Y-37596535D01*
X150950499Y-37596530D01*
X151389500Y-37596530D01*
X151389500Y-37803469D01*
X151429868Y-38006412D01*
X151429870Y-38006420D01*
X151509058Y-38197596D01*
X151624024Y-38369657D01*
X151770342Y-38515975D01*
X151770345Y-38515977D01*
X151942402Y-38630941D01*
X152133580Y-38710130D01*
X152278052Y-38738867D01*
X152336530Y-38750499D01*
X152336534Y-38750500D01*
X152336535Y-38750500D01*
X152543466Y-38750500D01*
X152543467Y-38750499D01*
X152746420Y-38710130D01*
X152937598Y-38630941D01*
X153109655Y-38515977D01*
X153255977Y-38369655D01*
X153370941Y-38197598D01*
X153450130Y-38006420D01*
X153490500Y-37803465D01*
X153490500Y-37596535D01*
X153450130Y-37393580D01*
X153370941Y-37202402D01*
X153255977Y-37030345D01*
X153255975Y-37030342D01*
X153109657Y-36884024D01*
X152941655Y-36771770D01*
X152937598Y-36769059D01*
X152746420Y-36689870D01*
X152746412Y-36689868D01*
X152543469Y-36649500D01*
X152543465Y-36649500D01*
X152336535Y-36649500D01*
X152336530Y-36649500D01*
X152133587Y-36689868D01*
X152133579Y-36689870D01*
X151942403Y-36769058D01*
X151770342Y-36884024D01*
X151624024Y-37030342D01*
X151509058Y-37202403D01*
X151429870Y-37393579D01*
X151429868Y-37393587D01*
X151389500Y-37596530D01*
X150950499Y-37596530D01*
X150910130Y-37393580D01*
X150830941Y-37202402D01*
X150715977Y-37030345D01*
X150715975Y-37030342D01*
X150569657Y-36884024D01*
X150401655Y-36771770D01*
X150397598Y-36769059D01*
X150206420Y-36689870D01*
X150206412Y-36689868D01*
X150003469Y-36649500D01*
X150003465Y-36649500D01*
X149796535Y-36649500D01*
X149796530Y-36649500D01*
X149593587Y-36689868D01*
X149593579Y-36689870D01*
X149402403Y-36769058D01*
X149230342Y-36884024D01*
X149084024Y-37030342D01*
X148969058Y-37202403D01*
X148889870Y-37393579D01*
X148889868Y-37393587D01*
X148849500Y-37596530D01*
X148457324Y-37596530D01*
X148432914Y-37442415D01*
X148379408Y-37277742D01*
X148300801Y-37123471D01*
X148236780Y-37035352D01*
X148236778Y-37035351D01*
X147803670Y-37468460D01*
X147760099Y-37392993D01*
X147667007Y-37299901D01*
X147591538Y-37256329D01*
X148024647Y-36823220D01*
X148024646Y-36823219D01*
X147936528Y-36759198D01*
X147782257Y-36680591D01*
X147617584Y-36627085D01*
X147446571Y-36600000D01*
X147273429Y-36600000D01*
X147102415Y-36627085D01*
X146937742Y-36680591D01*
X146783478Y-36759194D01*
X146695352Y-36823220D01*
X147128461Y-37256329D01*
X147052993Y-37299901D01*
X146959901Y-37392993D01*
X146916329Y-37468461D01*
X146483220Y-37035352D01*
X146419194Y-37123478D01*
X146340591Y-37277742D01*
X146287085Y-37442415D01*
X146260000Y-37613428D01*
X145870500Y-37613428D01*
X145870500Y-36830249D01*
X145870499Y-36830247D01*
X145858868Y-36771770D01*
X145858867Y-36771769D01*
X145814552Y-36705447D01*
X145748230Y-36661132D01*
X145748229Y-36661131D01*
X145689752Y-36649500D01*
X145689748Y-36649500D01*
X143950252Y-36649500D01*
X143950247Y-36649500D01*
X143891770Y-36661131D01*
X143891769Y-36661132D01*
X143825447Y-36705447D01*
X143781132Y-36771769D01*
X143781131Y-36771770D01*
X143769500Y-36830247D01*
X137500500Y-36830247D01*
X137500500Y-34828006D01*
X137520185Y-34760967D01*
X137572989Y-34715212D01*
X137624500Y-34704006D01*
X158375500Y-34704006D01*
X158442539Y-34723691D01*
G37*
%TD.AperFunction*%
%TD*%
M02*
