M48
; DRILL file KiCad 10.0.6 date 2026-10-09T17:43:00
; FORMAT={-:-/ absolute / metric / decimal}
; #@! TF.CreationDate,2026-10-09T17:43:00+06:00
; #@! TF.GenerationSoftware,Kicad,Pcbnew,10.0.6
; #@! TF.FileFunction,Plated,1,2,PTH
FMAT,2
METRIC
; #@! TA.AperFunction,Plated,PTH,ViaDrill
T1C0.300
; #@! TA.AperFunction,Plated,PTH,ComponentDrill
T2C0.600
; #@! TA.AperFunction,Plated,PTH,ComponentDrill
T3C1.000
%
G90
G05
T1
X139.75Y-47.5
X140.75Y-45.75
X143.5Y-50.75
X144.5Y-51.5
X144.75Y-41.0
X148.5Y-47.75
X150.25Y-47.75
X151.0Y-51.5
X151.875Y-47.859
T3
X144.82Y-37.7
X147.36Y-37.7
X149.9Y-37.7
X152.44Y-37.7
X155.5Y-41.76
X155.5Y-44.3
X155.5Y-46.84
X155.5Y-49.38
T2
G00X143.435Y-52.34
M15
G01X143.435Y-53.44
M16
G05
G00X143.435Y-56.67
M15
G01X143.435Y-57.47
M16
G05
G00X152.075Y-52.34
M15
G01X152.075Y-53.44
M16
G05
G00X152.075Y-56.67
M15
G01X152.075Y-57.47
M16
G05
M30
