%TF.GenerationSoftware,KiCad,Pcbnew,10.0.6*%
%TF.CreationDate,2026-10-09T17:42:04+06:00*%
%TF.ProjectId,USB_C_3V3_Interface_Board,5553425f-435f-4335-9633-5f496e746572,rev?*%
%TF.SameCoordinates,Original*%
%TF.FileFunction,Copper,L1,Top*%
%TF.FilePolarity,Positive*%
%FSLAX46Y46*%
G04 Gerber Fmt 4.6, Leading zero omitted, Abs format (unit mm)*
G04 Created by KiCad (PCBNEW 10.0.6) date 2026-10-09 17:42:04*
%MOMM*%
%LPD*%
G01*
G04 APERTURE LIST*
G04 Aperture macros list*
%AMRoundRect*
0 Rectangle with rounded corners*
0 $1 Rounding radius*
0 $2 $3 $4 $5 $6 $7 $8 $9 X,Y pos of 4 corners*
0 Add a 4 corners polygon primitive as box body*
4,1,4,$2,$3,$4,$5,$6,$7,$8,$9,$2,$3,0*
0 Add four circle primitives for the rounded corners*
1,1,$1+$1,$2,$3*
1,1,$1+$1,$4,$5*
1,1,$1+$1,$6,$7*
1,1,$1+$1,$8,$9*
0 Add four rect primitives between the rounded corners*
20,1,$1+$1,$2,$3,$4,$5,0*
20,1,$1+$1,$4,$5,$6,$7,0*
20,1,$1+$1,$6,$7,$8,$9,0*
20,1,$1+$1,$8,$9,$2,$3,0*%
G04 Aperture macros list end*
%TA.AperFunction,SMDPad,CuDef*%
%ADD10RoundRect,0.250000X0.475000X-0.250000X0.475000X0.250000X-0.475000X0.250000X-0.475000X-0.250000X0*%
%TD*%
%TA.AperFunction,SMDPad,CuDef*%
%ADD11RoundRect,0.250000X0.450000X-0.262500X0.450000X0.262500X-0.450000X0.262500X-0.450000X-0.262500X0*%
%TD*%
%TA.AperFunction,SMDPad,CuDef*%
%ADD12RoundRect,0.243750X0.456250X-0.243750X0.456250X0.243750X-0.456250X0.243750X-0.456250X-0.243750X0*%
%TD*%
%TA.AperFunction,ComponentPad*%
%ADD13R,1.700000X1.700000*%
%TD*%
%TA.AperFunction,ComponentPad*%
%ADD14C,1.700000*%
%TD*%
%TA.AperFunction,SMDPad,CuDef*%
%ADD15RoundRect,0.250000X-0.262500X-0.450000X0.262500X-0.450000X0.262500X0.450000X-0.262500X0.450000X0*%
%TD*%
%TA.AperFunction,SMDPad,CuDef*%
%ADD16RoundRect,0.150000X-0.512500X-0.150000X0.512500X-0.150000X0.512500X0.150000X-0.512500X0.150000X0*%
%TD*%
%TA.AperFunction,SMDPad,CuDef*%
%ADD17RoundRect,0.250000X-0.475000X0.250000X-0.475000X-0.250000X0.475000X-0.250000X0.475000X0.250000X0*%
%TD*%
%TA.AperFunction,SMDPad,CuDef*%
%ADD18RoundRect,0.112500X-0.112500X0.187500X-0.112500X-0.187500X0.112500X-0.187500X0.112500X0.187500X0*%
%TD*%
%TA.AperFunction,SMDPad,CuDef*%
%ADD19RoundRect,0.250000X0.625000X-0.375000X0.625000X0.375000X-0.625000X0.375000X-0.625000X-0.375000X0*%
%TD*%
%TA.AperFunction,SMDPad,CuDef*%
%ADD20RoundRect,0.150000X-0.150000X-0.425000X0.150000X-0.425000X0.150000X0.425000X-0.150000X0.425000X0*%
%TD*%
%TA.AperFunction,SMDPad,CuDef*%
%ADD21RoundRect,0.075000X-0.075000X-0.500000X0.075000X-0.500000X0.075000X0.500000X-0.075000X0.500000X0*%
%TD*%
%TA.AperFunction,ComponentPad*%
%ADD22O,1.000000X2.100000*%
%TD*%
%TA.AperFunction,ComponentPad*%
%ADD23O,1.000000X1.800000*%
%TD*%
%TA.AperFunction,ViaPad*%
%ADD24C,0.600000*%
%TD*%
%TA.AperFunction,Conductor*%
%ADD25C,0.250000*%
%TD*%
%TA.AperFunction,Conductor*%
%ADD26C,0.500000*%
%TD*%
G04 APERTURE END LIST*
D10*
%TO.P,C2,1*%
%TO.N,+3V3*%
X144878910Y-43599431D03*
%TO.P,C2,2*%
%TO.N,GND*%
X144878910Y-41699431D03*
%TD*%
D11*
%TO.P,R1,1*%
%TO.N,Net-(J1-CC1)*%
X148400000Y-50412500D03*
%TO.P,R1,2*%
%TO.N,GND*%
X148400000Y-48587500D03*
%TD*%
D12*
%TO.P,D2,1,K_1*%
%TO.N,GND*%
X151600000Y-46975000D03*
%TO.P,D2,2,A_2*%
%TO.N,Net-(D2-A)*%
X151600000Y-45100000D03*
%TD*%
D11*
%TO.P,R2,1*%
%TO.N,Net-(J1-CC2)*%
X150400000Y-50412500D03*
%TO.P,R2,2*%
%TO.N,GND*%
X150400000Y-48587500D03*
%TD*%
D13*
%TO.P,J3,1,Pin_1_1*%
%TO.N,+3V3*%
X155500000Y-41760000D03*
D14*
%TO.P,J3,2,Pin_2_2*%
%TO.N,GND*%
X155500000Y-44300000D03*
%TO.P,J3,3,Pin_3_3*%
%TO.N,/GPIO1*%
X155500000Y-46840000D03*
%TO.P,J3,4,Pin_4_4*%
%TO.N,/GPIO2*%
X155500000Y-49380000D03*
%TD*%
D11*
%TO.P,R4,2*%
%TO.N,/SDA*%
X148400000Y-40312500D03*
%TO.P,R4,1*%
%TO.N,+3V3*%
X148400000Y-42137500D03*
%TD*%
D13*
%TO.P,J2,1,Pin_1_1*%
%TO.N,+3V3*%
X144820000Y-37700000D03*
D14*
%TO.P,J2,2,Pin_2_2*%
%TO.N,GND*%
X147360000Y-37700000D03*
%TO.P,J2,3,Pin_3_3*%
%TO.N,/SDA*%
X149900000Y-37700000D03*
%TO.P,J2,4,Pin_4_4*%
%TO.N,/SCL*%
X152440000Y-37700000D03*
%TD*%
D11*
%TO.P,R5,2*%
%TO.N,/SCL*%
X150600000Y-40300000D03*
%TO.P,R5,1*%
%TO.N,+3V3*%
X150600000Y-42125000D03*
%TD*%
D15*
%TO.P,R3,2*%
%TO.N,Net-(D2-A)*%
X149800000Y-45300000D03*
%TO.P,R3,1*%
%TO.N,+3V3*%
X147975000Y-45300000D03*
%TD*%
D16*
%TO.P,U1,1,VIN_1*%
%TO.N,/+5V_USB*%
X141662500Y-44950000D03*
%TO.P,U1,2,GND_2*%
%TO.N,GND*%
X141662500Y-45900000D03*
%TO.P,U1,3,EN_3*%
%TO.N,/+5V_USB*%
X141662500Y-46850000D03*
%TO.P,U1,4,NC_4*%
%TO.N,unconnected-(U1-NC-Pad4)*%
X143937500Y-46850000D03*
%TO.P,U1,5,VOUT_5*%
%TO.N,+3V3*%
X143937500Y-44950000D03*
%TD*%
D17*
%TO.P,C1,2*%
%TO.N,GND*%
X139719717Y-46642352D03*
%TO.P,C1,1*%
%TO.N,/+5V_USB*%
X139719717Y-44742352D03*
%TD*%
D18*
%TO.P,D1,2,A_2*%
%TO.N,GND*%
X144115049Y-50624269D03*
%TO.P,D1,1,K_1*%
%TO.N,/+5V_USB*%
X144115049Y-48524269D03*
%TD*%
D19*
%TO.P,F1,2*%
%TO.N,/+5V_USB*%
X146250000Y-47500000D03*
%TO.P,F1,1*%
%TO.N,Net-(F1-Pad1)*%
X146250000Y-50300000D03*
%TD*%
D20*
%TO.P,J1,A1,GND_A1*%
%TO.N,GND*%
X144555000Y-52315000D03*
%TO.P,J1,A4,VBUS_A4*%
%TO.N,Net-(F1-Pad1)*%
X145355000Y-52315000D03*
D21*
%TO.P,J1,A5,CC1_A5*%
%TO.N,Net-(J1-CC1)*%
X146505000Y-52315000D03*
%TO.P,J1,A6,D+_A6*%
%TO.N,unconnected-(J1-D+-PadA6)*%
X147505000Y-52315000D03*
%TO.P,J1,A7,D-_A7*%
%TO.N,unconnected-(J1-D--PadA7)*%
X148005000Y-52315000D03*
%TO.P,J1,A8,SBU1_A8*%
%TO.N,unconnected-(J1-SBU1-PadA8)*%
X149005000Y-52315000D03*
D20*
%TO.P,J1,A9,VBUS_A9*%
%TO.N,Net-(F1-Pad1)*%
X150155000Y-52315000D03*
%TO.P,J1,A12,GND_A12*%
%TO.N,GND*%
X150955000Y-52315000D03*
%TO.P,J1,B1,GND_B1*%
X150955000Y-52315000D03*
%TO.P,J1,B4,VBUS_B4*%
%TO.N,Net-(F1-Pad1)*%
X150155000Y-52315000D03*
D21*
%TO.P,J1,B5,CC2_B5*%
%TO.N,Net-(J1-CC2)*%
X149505000Y-52315000D03*
%TO.P,J1,B6,D+_B6*%
%TO.N,unconnected-(J1-D+-PadB6)*%
X148505000Y-52315000D03*
%TO.P,J1,B7,D-_B7*%
%TO.N,unconnected-(J1-D--PadB7)*%
X147005000Y-52315000D03*
%TO.P,J1,B8,SBU2_B8*%
%TO.N,unconnected-(J1-SBU2-PadB8)*%
X146005000Y-52315000D03*
D20*
%TO.P,J1,B9,VBUS_B9*%
%TO.N,Net-(F1-Pad1)*%
X145355000Y-52315000D03*
%TO.P,J1,B12,GND_B12*%
%TO.N,GND*%
X144555000Y-52315000D03*
D22*
%TO.P,J1,SH,SHIELD_SH*%
X143435000Y-52890000D03*
D23*
X143435000Y-57070000D03*
D22*
X152075000Y-52890000D03*
D23*
X152075000Y-57070000D03*
%TD*%
D24*
%TO.N,GND*%
X151000000Y-51500000D03*
X144500000Y-51500000D03*
X143500000Y-50750000D03*
X151874797Y-47859162D03*
X150250000Y-47750000D03*
X148500000Y-47750000D03*
X144750000Y-41000000D03*
X140750000Y-45750000D03*
X139750000Y-47500000D03*
%TD*%
%TO.N,GND*%
D25*
X150955000Y-51545000D02*
X151000000Y-51500000D01*
X150955000Y-52315000D02*
X150955000Y-51545000D01*
X144555000Y-51555000D02*
X144500000Y-51500000D01*
X144555000Y-52315000D02*
X144555000Y-51555000D01*
X143625731Y-50624269D02*
X143500000Y-50750000D01*
X144115049Y-50624269D02*
X143625731Y-50624269D01*
X151600000Y-47584365D02*
X151874797Y-47859162D01*
X151600000Y-46975000D02*
X151600000Y-47584365D01*
X150400000Y-47900000D02*
X150250000Y-47750000D01*
X150400000Y-48587500D02*
X150400000Y-47900000D01*
X148400000Y-47850000D02*
X148500000Y-47750000D01*
X148400000Y-48587500D02*
X148400000Y-47850000D01*
X144878910Y-41128910D02*
X144750000Y-41000000D01*
X144878910Y-41699431D02*
X144878910Y-41128910D01*
X140900000Y-45900000D02*
X140750000Y-45750000D01*
X141662500Y-45900000D02*
X140900000Y-45900000D01*
X139719717Y-47469717D02*
X139750000Y-47500000D01*
X139719717Y-46642352D02*
X139719717Y-47469717D01*
%TO.N,/SCL*%
X150600000Y-40300000D02*
X150600000Y-39540000D01*
X150600000Y-39540000D02*
X152440000Y-37700000D01*
%TO.N,/SDA*%
X148400000Y-39200000D02*
X149900000Y-37700000D01*
X148400000Y-40312500D02*
X148400000Y-39200000D01*
%TO.N,Net-(D2-A)*%
X151400000Y-45300000D02*
X151600000Y-45100000D01*
X149800000Y-45300000D02*
X151400000Y-45300000D01*
%TO.N,+3V3*%
D26*
X155135000Y-42125000D02*
X155500000Y-41760000D01*
X150600000Y-42125000D02*
X155135000Y-42125000D01*
X150587500Y-42137500D02*
X150600000Y-42125000D01*
X148400000Y-42137500D02*
X150587500Y-42137500D01*
X148137500Y-42137500D02*
X148400000Y-42137500D01*
X144820000Y-38820000D02*
X148137500Y-42137500D01*
X144820000Y-37700000D02*
X144820000Y-38820000D01*
X148400000Y-42137500D02*
X147736362Y-42137500D01*
X147736362Y-42137500D02*
X146274431Y-43599431D01*
X144878910Y-43599431D02*
X146274431Y-43599431D01*
X146274431Y-43599431D02*
X147975000Y-45300000D01*
%TO.N,Net-(F1-Pad1)*%
D25*
X150155000Y-52889999D02*
X150155000Y-52315000D01*
X149829999Y-53215000D02*
X150155000Y-52889999D01*
X145680001Y-53215000D02*
X149829999Y-53215000D01*
X145355000Y-52315000D02*
X145355000Y-52889999D01*
X145355000Y-52889999D02*
X145680001Y-53215000D01*
%TO.N,Net-(J1-CC1)*%
X146505000Y-51672236D02*
X146505000Y-52315000D01*
X146762236Y-51415000D02*
X146505000Y-51672236D01*
X147397500Y-51415000D02*
X146762236Y-51415000D01*
X148400000Y-50412500D02*
X147397500Y-51415000D01*
%TO.N,Net-(J1-CC2)*%
X149505000Y-51307500D02*
X149505000Y-52315000D01*
X150400000Y-50412500D02*
X149505000Y-51307500D01*
%TO.N,/+5V_USB*%
D26*
X139927365Y-44950000D02*
X139719717Y-44742352D01*
X141662500Y-44950000D02*
X139927365Y-44950000D01*
X143077684Y-46000000D02*
X143374999Y-46000000D01*
X142227684Y-46850000D02*
X143077684Y-46000000D01*
X141662500Y-46850000D02*
X142227684Y-46850000D01*
X143374999Y-46000000D02*
X142324999Y-44950000D01*
X144750000Y-46000000D02*
X143374999Y-46000000D01*
X146250000Y-47500000D02*
X144750000Y-46000000D01*
X142324999Y-44950000D02*
X141662500Y-44950000D01*
X145475731Y-48524269D02*
X144115049Y-48524269D01*
X146500000Y-47500000D02*
X145475731Y-48524269D01*
X146250000Y-47500000D02*
X146500000Y-47500000D01*
%TO.N,+3V3*%
X143937500Y-44540841D02*
X144878910Y-43599431D01*
X143937500Y-44950000D02*
X143937500Y-44540841D01*
%TO.N,Net-(F1-Pad1)*%
X145355000Y-51195000D02*
X145355000Y-52315000D01*
X146250000Y-50300000D02*
X145355000Y-51195000D01*
%TD*%
M02*
