%TF.GenerationSoftware,KiCad,Pcbnew,10.0.6*%
%TF.CreationDate,2026-10-09T17:42:04+06:00*%
%TF.ProjectId,USB_C_3V3_Interface_Board,5553425f-435f-4335-9633-5f496e746572,rev?*%
%TF.SameCoordinates,Original*%
%TF.FileFunction,Soldermask,Top*%
%TF.FilePolarity,Negative*%
%FSLAX46Y46*%
G04 Gerber Fmt 4.6, Leading zero omitted, Abs format (unit mm)*
G04 Created by KiCad (PCBNEW 10.0.6) date 2026-10-09 17:42:04*
%MOMM*%
%LPD*%
G01*
G04 APERTURE LIST*
G04 Aperture macros list*
%AMRoundRect*
0 Rectangle with rounded corners*
0 $1 Rounding radius*
0 $2 $3 $4 $5 $6 $7 $8 $9 X,Y pos of 4 corners*
0 Add a 4 corners polygon primitive as box body*
4,1,4,$2,$3,$4,$5,$6,$7,$8,$9,$2,$3,0*
0 Add four circle primitives for the rounded corners*
1,1,$1+$1,$2,$3*
1,1,$1+$1,$4,$5*
1,1,$1+$1,$6,$7*
1,1,$1+$1,$8,$9*
0 Add four rect primitives between the rounded corners*
20,1,$1+$1,$2,$3,$4,$5,0*
20,1,$1+$1,$4,$5,$6,$7,0*
20,1,$1+$1,$6,$7,$8,$9,0*
20,1,$1+$1,$8,$9,$2,$3,0*%
G04 Aperture macros list end*
%ADD10RoundRect,0.250000X0.475000X-0.250000X0.475000X0.250000X-0.475000X0.250000X-0.475000X-0.250000X0*%
%ADD11RoundRect,0.250000X0.450000X-0.262500X0.450000X0.262500X-0.450000X0.262500X-0.450000X-0.262500X0*%
%ADD12RoundRect,0.243750X0.456250X-0.243750X0.456250X0.243750X-0.456250X0.243750X-0.456250X-0.243750X0*%
%ADD13R,1.700000X1.700000*%
%ADD14C,1.700000*%
%ADD15RoundRect,0.250000X-0.262500X-0.450000X0.262500X-0.450000X0.262500X0.450000X-0.262500X0.450000X0*%
%ADD16RoundRect,0.150000X-0.512500X-0.150000X0.512500X-0.150000X0.512500X0.150000X-0.512500X0.150000X0*%
%ADD17RoundRect,0.250000X-0.475000X0.250000X-0.475000X-0.250000X0.475000X-0.250000X0.475000X0.250000X0*%
%ADD18RoundRect,0.112500X-0.112500X0.187500X-0.112500X-0.187500X0.112500X-0.187500X0.112500X0.187500X0*%
%ADD19RoundRect,0.250000X0.625000X-0.375000X0.625000X0.375000X-0.625000X0.375000X-0.625000X-0.375000X0*%
%ADD20C,0.650000*%
%ADD21RoundRect,0.150000X-0.150000X-0.425000X0.150000X-0.425000X0.150000X0.425000X-0.150000X0.425000X0*%
%ADD22RoundRect,0.075000X-0.075000X-0.500000X0.075000X-0.500000X0.075000X0.500000X-0.075000X0.500000X0*%
%ADD23O,1.000000X2.100000*%
%ADD24O,1.000000X1.800000*%
G04 APERTURE END LIST*
D10*
%TO.C,C2*%
X144878910Y-43599431D03*
X144878910Y-41699431D03*
%TD*%
D11*
%TO.C,R1*%
X148400000Y-50412500D03*
X148400000Y-48587500D03*
%TD*%
D12*
%TO.C,D2*%
X151600000Y-46975000D03*
X151600000Y-45100000D03*
%TD*%
D11*
%TO.C,R2*%
X150400000Y-50412500D03*
X150400000Y-48587500D03*
%TD*%
D13*
%TO.C,J3*%
X155500000Y-41760000D03*
D14*
X155500000Y-44300000D03*
X155500000Y-46840000D03*
X155500000Y-49380000D03*
%TD*%
D11*
%TO.C,R4*%
X148400000Y-40312500D03*
X148400000Y-42137500D03*
%TD*%
D13*
%TO.C,J2*%
X144820000Y-37700000D03*
D14*
X147360000Y-37700000D03*
X149900000Y-37700000D03*
X152440000Y-37700000D03*
%TD*%
D11*
%TO.C,R5*%
X150600000Y-40300000D03*
X150600000Y-42125000D03*
%TD*%
D15*
%TO.C,R3*%
X149800000Y-45300000D03*
X147975000Y-45300000D03*
%TD*%
D16*
%TO.C,U1*%
X141662500Y-44950000D03*
X141662500Y-45900000D03*
X141662500Y-46850000D03*
X143937500Y-46850000D03*
X143937500Y-44950000D03*
%TD*%
D17*
%TO.C,C1*%
X139719717Y-46642352D03*
X139719717Y-44742352D03*
%TD*%
D18*
%TO.C,D1*%
X144115049Y-50624269D03*
X144115049Y-48524269D03*
%TD*%
D19*
%TO.C,F1*%
X146250000Y-47500000D03*
X146250000Y-50300000D03*
%TD*%
D20*
%TO.C,J1*%
X144865000Y-53390000D03*
X150645000Y-53390000D03*
D21*
X144555000Y-52315000D03*
X145355000Y-52315000D03*
D22*
X146505000Y-52315000D03*
X147505000Y-52315000D03*
X148005000Y-52315000D03*
X149005000Y-52315000D03*
D21*
X150155000Y-52315000D03*
X150955000Y-52315000D03*
X150955000Y-52315000D03*
X150155000Y-52315000D03*
D22*
X149505000Y-52315000D03*
X148505000Y-52315000D03*
X147005000Y-52315000D03*
X146005000Y-52315000D03*
D21*
X145355000Y-52315000D03*
X144555000Y-52315000D03*
D23*
X143435000Y-52890000D03*
D24*
X143435000Y-57070000D03*
D23*
X152075000Y-52890000D03*
D24*
X152075000Y-57070000D03*
%TD*%
M02*
