%TF.GenerationSoftware,KiCad,Pcbnew,10.0.6*%
%TF.CreationDate,2026-10-09T17:42:04+06:00*%
%TF.ProjectId,USB_C_3V3_Interface_Board,5553425f-435f-4335-9633-5f496e746572,rev?*%
%TF.SameCoordinates,Original*%
%TF.FileFunction,Legend,Bot*%
%TF.FilePolarity,Positive*%
%FSLAX46Y46*%
G04 Gerber Fmt 4.6, Leading zero omitted, Abs format (unit mm)*
G04 Created by KiCad (PCBNEW 10.0.6) date 2026-10-09 17:42:04*
%MOMM*%
%LPD*%
G01*
G04 APERTURE LIST*
%ADD10C,0.100000*%
%ADD11R,1.700000X1.700000*%
%ADD12C,1.700000*%
%ADD13C,0.650000*%
%ADD14O,1.000000X2.100000*%
%ADD15O,1.000000X1.800000*%
G04 APERTURE END LIST*
D10*
X153477068Y-49099942D02*
X153534211Y-49071371D01*
X153534211Y-49071371D02*
X153619925Y-49071371D01*
X153619925Y-49071371D02*
X153705639Y-49099942D01*
X153705639Y-49099942D02*
X153762782Y-49157085D01*
X153762782Y-49157085D02*
X153791353Y-49214228D01*
X153791353Y-49214228D02*
X153819925Y-49328514D01*
X153819925Y-49328514D02*
X153819925Y-49414228D01*
X153819925Y-49414228D02*
X153791353Y-49528514D01*
X153791353Y-49528514D02*
X153762782Y-49585657D01*
X153762782Y-49585657D02*
X153705639Y-49642800D01*
X153705639Y-49642800D02*
X153619925Y-49671371D01*
X153619925Y-49671371D02*
X153562782Y-49671371D01*
X153562782Y-49671371D02*
X153477068Y-49642800D01*
X153477068Y-49642800D02*
X153448496Y-49614228D01*
X153448496Y-49614228D02*
X153448496Y-49414228D01*
X153448496Y-49414228D02*
X153562782Y-49414228D01*
X153191353Y-49671371D02*
X153191353Y-49071371D01*
X153191353Y-49071371D02*
X152962782Y-49071371D01*
X152962782Y-49071371D02*
X152905639Y-49099942D01*
X152905639Y-49099942D02*
X152877068Y-49128514D01*
X152877068Y-49128514D02*
X152848496Y-49185657D01*
X152848496Y-49185657D02*
X152848496Y-49271371D01*
X152848496Y-49271371D02*
X152877068Y-49328514D01*
X152877068Y-49328514D02*
X152905639Y-49357085D01*
X152905639Y-49357085D02*
X152962782Y-49385657D01*
X152962782Y-49385657D02*
X153191353Y-49385657D01*
X152591353Y-49671371D02*
X152591353Y-49071371D01*
X152191354Y-49071371D02*
X152077068Y-49071371D01*
X152077068Y-49071371D02*
X152019925Y-49099942D01*
X152019925Y-49099942D02*
X151962782Y-49157085D01*
X151962782Y-49157085D02*
X151934211Y-49271371D01*
X151934211Y-49271371D02*
X151934211Y-49471371D01*
X151934211Y-49471371D02*
X151962782Y-49585657D01*
X151962782Y-49585657D02*
X152019925Y-49642800D01*
X152019925Y-49642800D02*
X152077068Y-49671371D01*
X152077068Y-49671371D02*
X152191354Y-49671371D01*
X152191354Y-49671371D02*
X152248497Y-49642800D01*
X152248497Y-49642800D02*
X152305639Y-49585657D01*
X152305639Y-49585657D02*
X152334211Y-49471371D01*
X152334211Y-49471371D02*
X152334211Y-49271371D01*
X152334211Y-49271371D02*
X152305639Y-49157085D01*
X152305639Y-49157085D02*
X152248497Y-49099942D01*
X152248497Y-49099942D02*
X152191354Y-49071371D01*
X151705640Y-49128514D02*
X151677068Y-49099942D01*
X151677068Y-49099942D02*
X151619926Y-49071371D01*
X151619926Y-49071371D02*
X151477068Y-49071371D01*
X151477068Y-49071371D02*
X151419926Y-49099942D01*
X151419926Y-49099942D02*
X151391354Y-49128514D01*
X151391354Y-49128514D02*
X151362783Y-49185657D01*
X151362783Y-49185657D02*
X151362783Y-49242800D01*
X151362783Y-49242800D02*
X151391354Y-49328514D01*
X151391354Y-49328514D02*
X151734211Y-49671371D01*
X151734211Y-49671371D02*
X151362783Y-49671371D01*
X153477068Y-46599942D02*
X153534211Y-46571371D01*
X153534211Y-46571371D02*
X153619925Y-46571371D01*
X153619925Y-46571371D02*
X153705639Y-46599942D01*
X153705639Y-46599942D02*
X153762782Y-46657085D01*
X153762782Y-46657085D02*
X153791353Y-46714228D01*
X153791353Y-46714228D02*
X153819925Y-46828514D01*
X153819925Y-46828514D02*
X153819925Y-46914228D01*
X153819925Y-46914228D02*
X153791353Y-47028514D01*
X153791353Y-47028514D02*
X153762782Y-47085657D01*
X153762782Y-47085657D02*
X153705639Y-47142800D01*
X153705639Y-47142800D02*
X153619925Y-47171371D01*
X153619925Y-47171371D02*
X153562782Y-47171371D01*
X153562782Y-47171371D02*
X153477068Y-47142800D01*
X153477068Y-47142800D02*
X153448496Y-47114228D01*
X153448496Y-47114228D02*
X153448496Y-46914228D01*
X153448496Y-46914228D02*
X153562782Y-46914228D01*
X153191353Y-47171371D02*
X153191353Y-46571371D01*
X153191353Y-46571371D02*
X152962782Y-46571371D01*
X152962782Y-46571371D02*
X152905639Y-46599942D01*
X152905639Y-46599942D02*
X152877068Y-46628514D01*
X152877068Y-46628514D02*
X152848496Y-46685657D01*
X152848496Y-46685657D02*
X152848496Y-46771371D01*
X152848496Y-46771371D02*
X152877068Y-46828514D01*
X152877068Y-46828514D02*
X152905639Y-46857085D01*
X152905639Y-46857085D02*
X152962782Y-46885657D01*
X152962782Y-46885657D02*
X153191353Y-46885657D01*
X152591353Y-47171371D02*
X152591353Y-46571371D01*
X152191354Y-46571371D02*
X152077068Y-46571371D01*
X152077068Y-46571371D02*
X152019925Y-46599942D01*
X152019925Y-46599942D02*
X151962782Y-46657085D01*
X151962782Y-46657085D02*
X151934211Y-46771371D01*
X151934211Y-46771371D02*
X151934211Y-46971371D01*
X151934211Y-46971371D02*
X151962782Y-47085657D01*
X151962782Y-47085657D02*
X152019925Y-47142800D01*
X152019925Y-47142800D02*
X152077068Y-47171371D01*
X152077068Y-47171371D02*
X152191354Y-47171371D01*
X152191354Y-47171371D02*
X152248497Y-47142800D01*
X152248497Y-47142800D02*
X152305639Y-47085657D01*
X152305639Y-47085657D02*
X152334211Y-46971371D01*
X152334211Y-46971371D02*
X152334211Y-46771371D01*
X152334211Y-46771371D02*
X152305639Y-46657085D01*
X152305639Y-46657085D02*
X152248497Y-46599942D01*
X152248497Y-46599942D02*
X152191354Y-46571371D01*
X151362783Y-47171371D02*
X151705640Y-47171371D01*
X151534211Y-47171371D02*
X151534211Y-46571371D01*
X151534211Y-46571371D02*
X151591354Y-46657085D01*
X151591354Y-46657085D02*
X151648497Y-46714228D01*
X151648497Y-46714228D02*
X151705640Y-46742800D01*
X153477068Y-43849942D02*
X153534211Y-43821371D01*
X153534211Y-43821371D02*
X153619925Y-43821371D01*
X153619925Y-43821371D02*
X153705639Y-43849942D01*
X153705639Y-43849942D02*
X153762782Y-43907085D01*
X153762782Y-43907085D02*
X153791353Y-43964228D01*
X153791353Y-43964228D02*
X153819925Y-44078514D01*
X153819925Y-44078514D02*
X153819925Y-44164228D01*
X153819925Y-44164228D02*
X153791353Y-44278514D01*
X153791353Y-44278514D02*
X153762782Y-44335657D01*
X153762782Y-44335657D02*
X153705639Y-44392800D01*
X153705639Y-44392800D02*
X153619925Y-44421371D01*
X153619925Y-44421371D02*
X153562782Y-44421371D01*
X153562782Y-44421371D02*
X153477068Y-44392800D01*
X153477068Y-44392800D02*
X153448496Y-44364228D01*
X153448496Y-44364228D02*
X153448496Y-44164228D01*
X153448496Y-44164228D02*
X153562782Y-44164228D01*
X153191353Y-44421371D02*
X153191353Y-43821371D01*
X153191353Y-43821371D02*
X152848496Y-44421371D01*
X152848496Y-44421371D02*
X152848496Y-43821371D01*
X152562782Y-44421371D02*
X152562782Y-43821371D01*
X152562782Y-43821371D02*
X152419925Y-43821371D01*
X152419925Y-43821371D02*
X152334211Y-43849942D01*
X152334211Y-43849942D02*
X152277068Y-43907085D01*
X152277068Y-43907085D02*
X152248497Y-43964228D01*
X152248497Y-43964228D02*
X152219925Y-44078514D01*
X152219925Y-44078514D02*
X152219925Y-44164228D01*
X152219925Y-44164228D02*
X152248497Y-44278514D01*
X152248497Y-44278514D02*
X152277068Y-44335657D01*
X152277068Y-44335657D02*
X152334211Y-44392800D01*
X152334211Y-44392800D02*
X152419925Y-44421371D01*
X152419925Y-44421371D02*
X152562782Y-44421371D01*
X153871194Y-41692800D02*
X153414052Y-41692800D01*
X153642623Y-41921371D02*
X153642623Y-41464228D01*
X153185480Y-41321371D02*
X152814052Y-41321371D01*
X152814052Y-41321371D02*
X153014052Y-41549942D01*
X153014052Y-41549942D02*
X152928337Y-41549942D01*
X152928337Y-41549942D02*
X152871195Y-41578514D01*
X152871195Y-41578514D02*
X152842623Y-41607085D01*
X152842623Y-41607085D02*
X152814052Y-41664228D01*
X152814052Y-41664228D02*
X152814052Y-41807085D01*
X152814052Y-41807085D02*
X152842623Y-41864228D01*
X152842623Y-41864228D02*
X152871195Y-41892800D01*
X152871195Y-41892800D02*
X152928337Y-41921371D01*
X152928337Y-41921371D02*
X153099766Y-41921371D01*
X153099766Y-41921371D02*
X153156909Y-41892800D01*
X153156909Y-41892800D02*
X153185480Y-41864228D01*
X152642623Y-41321371D02*
X152442623Y-41921371D01*
X152442623Y-41921371D02*
X152242623Y-41321371D01*
X152099765Y-41321371D02*
X151728337Y-41321371D01*
X151728337Y-41321371D02*
X151928337Y-41549942D01*
X151928337Y-41549942D02*
X151842622Y-41549942D01*
X151842622Y-41549942D02*
X151785480Y-41578514D01*
X151785480Y-41578514D02*
X151756908Y-41607085D01*
X151756908Y-41607085D02*
X151728337Y-41664228D01*
X151728337Y-41664228D02*
X151728337Y-41807085D01*
X151728337Y-41807085D02*
X151756908Y-41864228D01*
X151756908Y-41864228D02*
X151785480Y-41892800D01*
X151785480Y-41892800D02*
X151842622Y-41921371D01*
X151842622Y-41921371D02*
X152014051Y-41921371D01*
X152014051Y-41921371D02*
X152071194Y-41892800D01*
X152071194Y-41892800D02*
X152099765Y-41864228D01*
%LPC*%
D11*
%TO.C,J3*%
X155500000Y-41760000D03*
D12*
X155500000Y-44300000D03*
X155500000Y-46840000D03*
X155500000Y-49380000D03*
%TD*%
D11*
%TO.C,J2*%
X144820000Y-37700000D03*
D12*
X147360000Y-37700000D03*
X149900000Y-37700000D03*
X152440000Y-37700000D03*
%TD*%
D13*
%TO.C,J1*%
X144865000Y-53390000D03*
X150645000Y-53390000D03*
D14*
X143435000Y-52890000D03*
D15*
X143435000Y-57070000D03*
D14*
X152075000Y-52890000D03*
D15*
X152075000Y-57070000D03*
%TD*%
%LPD*%
M02*
