%TF.GenerationSoftware,KiCad,Pcbnew,10.0.6*%
%TF.CreationDate,2026-10-05T23:06:57+06:00*%
%TF.ProjectId,555_Timer_LED_Blinker,3535355f-5469-46d6-9572-5f4c45445f42,rev?*%
%TF.SameCoordinates,Original*%
%TF.FileFunction,Copper,L1,Top*%
%TF.FilePolarity,Positive*%
%FSLAX46Y46*%
G04 Gerber Fmt 4.6, Leading zero omitted, Abs format (unit mm)*
G04 Created by KiCad (PCBNEW 10.0.6) date 2026-10-05 23:06:57*
%MOMM*%
%LPD*%
G01*
G04 APERTURE LIST*
G04 Aperture macros list*
%AMRoundRect*
0 Rectangle with rounded corners*
0 $1 Rounding radius*
0 $2 $3 $4 $5 $6 $7 $8 $9 X,Y pos of 4 corners*
0 Add a 4 corners polygon primitive as box body*
4,1,4,$2,$3,$4,$5,$6,$7,$8,$9,$2,$3,0*
0 Add four circle primitives for the rounded corners*
1,1,$1+$1,$2,$3*
1,1,$1+$1,$4,$5*
1,1,$1+$1,$6,$7*
1,1,$1+$1,$8,$9*
0 Add four rect primitives between the rounded corners*
20,1,$1+$1,$2,$3,$4,$5,0*
20,1,$1+$1,$4,$5,$6,$7,0*
20,1,$1+$1,$6,$7,$8,$9,0*
20,1,$1+$1,$8,$9,$2,$3,0*%
G04 Aperture macros list end*
%TA.AperFunction,SMDPad,CuDef*%
%ADD10RoundRect,0.250000X-1.500000X-0.550000X1.500000X-0.550000X1.500000X0.550000X-1.500000X0.550000X0*%
%TD*%
%TA.AperFunction,SMDPad,CuDef*%
%ADD11RoundRect,0.250000X-0.450000X0.262500X-0.450000X-0.262500X0.450000X-0.262500X0.450000X0.262500X0*%
%TD*%
%TA.AperFunction,ComponentPad*%
%ADD12R,1.700000X1.700000*%
%TD*%
%TA.AperFunction,ComponentPad*%
%ADD13C,1.700000*%
%TD*%
%TA.AperFunction,ComponentPad*%
%ADD14C,1.600000*%
%TD*%
%TA.AperFunction,ComponentPad*%
%ADD15RoundRect,0.250000X-0.550000X-0.550000X0.550000X-0.550000X0.550000X0.550000X-0.550000X0.550000X0*%
%TD*%
%TA.AperFunction,SMDPad,CuDef*%
%ADD16RoundRect,0.243750X0.456250X-0.243750X0.456250X0.243750X-0.456250X0.243750X-0.456250X-0.243750X0*%
%TD*%
%TA.AperFunction,SMDPad,CuDef*%
%ADD17RoundRect,0.250000X-0.250000X-0.475000X0.250000X-0.475000X0.250000X0.475000X-0.250000X0.475000X0*%
%TD*%
%TA.AperFunction,SMDPad,CuDef*%
%ADD18RoundRect,0.250000X1.050000X0.550000X-1.050000X0.550000X-1.050000X-0.550000X1.050000X-0.550000X0*%
%TD*%
%TA.AperFunction,ViaPad*%
%ADD19C,0.600000*%
%TD*%
%TA.AperFunction,Conductor*%
%ADD20C,0.300000*%
%TD*%
G04 APERTURE END LIST*
D10*
%TO.P,C1,1*%
%TO.N,+5V*%
X155300000Y-60000000D03*
%TO.P,C1,2*%
%TO.N,GND*%
X160700000Y-60000000D03*
%TD*%
D11*
%TO.P,R2,2*%
%TO.N,Net-(U1-THRES)*%
X148500000Y-63500000D03*
%TO.P,R2,1*%
%TO.N,Net-(U1-DISCH)*%
X148500000Y-61675000D03*
%TD*%
%TO.P,R1,2*%
%TO.N,Net-(U1-DISCH)*%
X148500000Y-60000000D03*
%TO.P,R1,1*%
%TO.N,+5V*%
X148500000Y-58175000D03*
%TD*%
D12*
%TO.P,J2,1,Pin_1_1*%
%TO.N,+5V*%
X151500000Y-59225000D03*
D13*
%TO.P,J2,2,Pin_2_2*%
%TO.N,GND*%
X151500000Y-61765000D03*
%TD*%
D14*
%TO.P,U1,8,VCC_8*%
%TO.N,+5V*%
X146205000Y-59045000D03*
%TO.P,U1,7,DISCH_7*%
%TO.N,Net-(U1-DISCH)*%
X146205000Y-61585000D03*
%TO.P,U1,6,THRES_6*%
%TO.N,Net-(U1-THRES)*%
X146205000Y-64125000D03*
%TO.P,U1,5,CONT_5*%
%TO.N,Net-(U1-CONT)*%
X146205000Y-66665000D03*
%TO.P,U1,4,~{RST}_4*%
%TO.N,+5V*%
X138585000Y-66665000D03*
%TO.P,U1,3,OUT_3*%
%TO.N,Net-(U1-OUT)*%
X138585000Y-64125000D03*
%TO.P,U1,2,TRIG_2*%
%TO.N,Net-(U1-THRES)*%
X138585000Y-61585000D03*
D15*
%TO.P,U1,1,GND_1*%
%TO.N,GND*%
X138585000Y-59045000D03*
%TD*%
D11*
%TO.P,R3,1*%
%TO.N,Net-(U1-OUT)*%
X136412500Y-63087500D03*
%TO.P,R3,2*%
%TO.N,Net-(D1-A)*%
X136412500Y-64912500D03*
%TD*%
D13*
%TO.P,J1,2,Pin_2_2*%
%TO.N,GND*%
X141500000Y-70000000D03*
D12*
%TO.P,J1,1,Pin_1_1*%
%TO.N,Net-(D1-K)*%
X138960000Y-70000000D03*
%TD*%
D16*
%TO.P,D1,1,K_1*%
%TO.N,Net-(D1-K)*%
X136000000Y-68437500D03*
%TO.P,D1,2,A_2*%
%TO.N,Net-(D1-A)*%
X136000000Y-66562500D03*
%TD*%
D17*
%TO.P,C3,2*%
%TO.N,GND*%
X150000000Y-67500000D03*
%TO.P,C3,1*%
%TO.N,Net-(U1-CONT)*%
X148100000Y-67500000D03*
%TD*%
D18*
%TO.P,C2,1*%
%TO.N,Net-(U1-THRES)*%
X135800000Y-60000000D03*
%TO.P,C2,2*%
%TO.N,GND*%
X132200000Y-60000000D03*
%TD*%
D19*
%TO.N,GND*%
X162000000Y-61500000D03*
X131000000Y-61500000D03*
X151000000Y-67000000D03*
%TD*%
%TO.N,GND*%
D20*
X160700000Y-60200000D02*
X162000000Y-61500000D01*
X160700000Y-60000000D02*
X160700000Y-60200000D01*
%TO.N,+5V*%
X153000000Y-60000000D02*
X155300000Y-60000000D01*
X152225000Y-59225000D02*
X153000000Y-60000000D01*
X151500000Y-59225000D02*
X152225000Y-59225000D01*
%TO.N,GND*%
X132200000Y-60300000D02*
X131000000Y-61500000D01*
X132200000Y-60000000D02*
X132200000Y-60300000D01*
X150500000Y-67500000D02*
X151000000Y-67000000D01*
X150000000Y-67500000D02*
X150500000Y-67500000D01*
%TO.N,Net-(U1-THRES)*%
X142515000Y-67815000D02*
X146205000Y-64125000D01*
X138108654Y-67815000D02*
X142515000Y-67815000D01*
X137435000Y-67141346D02*
X138108654Y-67815000D01*
X137435000Y-66188654D02*
X137435000Y-67141346D01*
X139027894Y-65515000D02*
X138108654Y-65515000D01*
X139748947Y-64793947D02*
X139027894Y-65515000D01*
X139748947Y-62748947D02*
X139748947Y-64793947D01*
X138585000Y-61585000D02*
X139748947Y-62748947D01*
X138108654Y-65515000D02*
X137435000Y-66188654D01*
%TO.N,Net-(U1-DISCH)*%
X148410000Y-61585000D02*
X148500000Y-61675000D01*
X146205000Y-61585000D02*
X148410000Y-61585000D01*
%TO.N,Net-(U1-THRES)*%
X146830000Y-63500000D02*
X146205000Y-64125000D01*
X148500000Y-63500000D02*
X146830000Y-63500000D01*
%TO.N,Net-(U1-CONT)*%
X147040000Y-67500000D02*
X146205000Y-66665000D01*
X148100000Y-67500000D02*
X147040000Y-67500000D01*
%TO.N,Net-(D1-K)*%
X136000000Y-68437500D02*
X137397500Y-68437500D01*
X137397500Y-68437500D02*
X138960000Y-70000000D01*
%TO.N,Net-(D1-A)*%
X136412500Y-66150000D02*
X136000000Y-66562500D01*
X136412500Y-64912500D02*
X136412500Y-66150000D01*
%TO.N,Net-(U1-OUT)*%
X137547500Y-63087500D02*
X138585000Y-64125000D01*
X136412500Y-63087500D02*
X137547500Y-63087500D01*
%TO.N,Net-(U1-THRES)*%
X137385000Y-61585000D02*
X138585000Y-61585000D01*
X135800000Y-60000000D02*
X137385000Y-61585000D01*
%TO.N,+5V*%
X147075000Y-58175000D02*
X146205000Y-59045000D01*
X148500000Y-58175000D02*
X147075000Y-58175000D01*
X150450000Y-58175000D02*
X151500000Y-59225000D01*
X148500000Y-58175000D02*
X150450000Y-58175000D01*
X152225000Y-58500000D02*
X151500000Y-59225000D01*
X138585000Y-66665000D02*
X140500000Y-64750000D01*
X140500000Y-61000000D02*
X142455000Y-59045000D01*
X142455000Y-59045000D02*
X146205000Y-59045000D01*
%TO.N,Net-(U1-DISCH)*%
X148500000Y-60000000D02*
X148500000Y-61675000D01*
%TO.N,+5V*%
X140500000Y-64750000D02*
X140500000Y-61000000D01*
%TD*%
M02*
