%TF.GenerationSoftware,KiCad,Pcbnew,10.0.6*%
%TF.CreationDate,2026-10-05T23:06:57+06:00*%
%TF.ProjectId,555_Timer_LED_Blinker,3535355f-5469-46d6-9572-5f4c45445f42,rev?*%
%TF.SameCoordinates,Original*%
%TF.FileFunction,Copper,L2,Bot*%
%TF.FilePolarity,Positive*%
%FSLAX46Y46*%
G04 Gerber Fmt 4.6, Leading zero omitted, Abs format (unit mm)*
G04 Created by KiCad (PCBNEW 10.0.6) date 2026-10-05 23:06:57*
%MOMM*%
%LPD*%
G01*
G04 APERTURE LIST*
G04 Aperture macros list*
%AMRoundRect*
0 Rectangle with rounded corners*
0 $1 Rounding radius*
0 $2 $3 $4 $5 $6 $7 $8 $9 X,Y pos of 4 corners*
0 Add a 4 corners polygon primitive as box body*
4,1,4,$2,$3,$4,$5,$6,$7,$8,$9,$2,$3,0*
0 Add four circle primitives for the rounded corners*
1,1,$1+$1,$2,$3*
1,1,$1+$1,$4,$5*
1,1,$1+$1,$6,$7*
1,1,$1+$1,$8,$9*
0 Add four rect primitives between the rounded corners*
20,1,$1+$1,$2,$3,$4,$5,0*
20,1,$1+$1,$4,$5,$6,$7,0*
20,1,$1+$1,$6,$7,$8,$9,0*
20,1,$1+$1,$8,$9,$2,$3,0*%
G04 Aperture macros list end*
%TA.AperFunction,ComponentPad*%
%ADD10R,1.700000X1.700000*%
%TD*%
%TA.AperFunction,ComponentPad*%
%ADD11C,1.700000*%
%TD*%
%TA.AperFunction,ComponentPad*%
%ADD12C,1.600000*%
%TD*%
%TA.AperFunction,ComponentPad*%
%ADD13RoundRect,0.250000X-0.550000X-0.550000X0.550000X-0.550000X0.550000X0.550000X-0.550000X0.550000X0*%
%TD*%
%TA.AperFunction,ViaPad*%
%ADD14C,0.600000*%
%TD*%
G04 APERTURE END LIST*
D10*
%TO.P,J2,1,Pin_1_1*%
%TO.N,+5V*%
X151500000Y-59225000D03*
D11*
%TO.P,J2,2,Pin_2_2*%
%TO.N,GND*%
X151500000Y-61765000D03*
%TD*%
D12*
%TO.P,U1,8,VCC_8*%
%TO.N,+5V*%
X146205000Y-59045000D03*
%TO.P,U1,7,DISCH_7*%
%TO.N,Net-(U1-DISCH)*%
X146205000Y-61585000D03*
%TO.P,U1,6,THRES_6*%
%TO.N,Net-(U1-THRES)*%
X146205000Y-64125000D03*
%TO.P,U1,5,CONT_5*%
%TO.N,Net-(U1-CONT)*%
X146205000Y-66665000D03*
%TO.P,U1,4,~{RST}_4*%
%TO.N,+5V*%
X138585000Y-66665000D03*
%TO.P,U1,3,OUT_3*%
%TO.N,Net-(U1-OUT)*%
X138585000Y-64125000D03*
%TO.P,U1,2,TRIG_2*%
%TO.N,Net-(U1-THRES)*%
X138585000Y-61585000D03*
D13*
%TO.P,U1,1,GND_1*%
%TO.N,GND*%
X138585000Y-59045000D03*
%TD*%
D11*
%TO.P,J1,2,Pin_2_2*%
%TO.N,GND*%
X141500000Y-70000000D03*
D10*
%TO.P,J1,1,Pin_1_1*%
%TO.N,Net-(D1-K)*%
X138960000Y-70000000D03*
%TD*%
D14*
%TO.N,GND*%
X162000000Y-61500000D03*
X131000000Y-61500000D03*
X151000000Y-67000000D03*
%TD*%
%TA.AperFunction,Conductor*%
%TO.N,GND*%
G36*
X163442539Y-54020185D02*
G01*
X163488294Y-54072989D01*
X163499500Y-54124500D01*
X163499500Y-72375500D01*
X163479815Y-72442539D01*
X163427011Y-72488294D01*
X163375500Y-72499500D01*
X130124500Y-72499500D01*
X130057461Y-72479815D01*
X130011706Y-72427011D01*
X130000500Y-72375500D01*
X130000500Y-69130247D01*
X137909500Y-69130247D01*
X137909500Y-70869752D01*
X137921131Y-70928229D01*
X137921132Y-70928230D01*
X137965447Y-70994552D01*
X138031769Y-71038867D01*
X138031770Y-71038868D01*
X138090247Y-71050499D01*
X138090250Y-71050500D01*
X138090252Y-71050500D01*
X139829750Y-71050500D01*
X139829751Y-71050499D01*
X139844568Y-71047552D01*
X139888229Y-71038868D01*
X139888229Y-71038867D01*
X139888231Y-71038867D01*
X139954552Y-70994552D01*
X139998867Y-70928231D01*
X139998867Y-70928229D01*
X139998868Y-70928229D01*
X140010499Y-70869752D01*
X140010500Y-70869750D01*
X140010500Y-69909493D01*
X140350000Y-69909493D01*
X140350000Y-70090506D01*
X140378317Y-70269293D01*
X140434251Y-70441444D01*
X140434252Y-70441447D01*
X140516432Y-70602731D01*
X140587424Y-70700442D01*
X140587425Y-70700443D01*
X141056329Y-70231538D01*
X141099901Y-70307007D01*
X141192993Y-70400099D01*
X141268460Y-70443670D01*
X140799555Y-70912574D01*
X140897268Y-70983567D01*
X141058552Y-71065747D01*
X141058555Y-71065748D01*
X141230706Y-71121682D01*
X141409494Y-71150000D01*
X141590506Y-71150000D01*
X141769293Y-71121682D01*
X141941444Y-71065748D01*
X141941447Y-71065747D01*
X142102730Y-70983568D01*
X142200442Y-70912574D01*
X142200443Y-70912574D01*
X141731539Y-70443670D01*
X141807007Y-70400099D01*
X141900099Y-70307007D01*
X141943670Y-70231539D01*
X142412574Y-70700443D01*
X142412574Y-70700442D01*
X142483568Y-70602730D01*
X142565747Y-70441447D01*
X142565748Y-70441444D01*
X142621682Y-70269293D01*
X142650000Y-70090506D01*
X142650000Y-69909493D01*
X142621682Y-69730706D01*
X142565748Y-69558555D01*
X142565747Y-69558552D01*
X142483567Y-69397268D01*
X142412574Y-69299556D01*
X142412574Y-69299555D01*
X141943670Y-69768460D01*
X141900099Y-69692993D01*
X141807007Y-69599901D01*
X141731539Y-69556329D01*
X142200443Y-69087425D01*
X142200442Y-69087424D01*
X142102731Y-69016432D01*
X141941447Y-68934252D01*
X141941444Y-68934251D01*
X141769293Y-68878317D01*
X141590506Y-68850000D01*
X141409494Y-68850000D01*
X141230706Y-68878317D01*
X141058555Y-68934251D01*
X141058552Y-68934252D01*
X140897265Y-69016434D01*
X140799556Y-69087423D01*
X140799556Y-69087425D01*
X141268461Y-69556329D01*
X141192993Y-69599901D01*
X141099901Y-69692993D01*
X141056329Y-69768460D01*
X140587425Y-69299556D01*
X140587423Y-69299556D01*
X140516434Y-69397265D01*
X140434252Y-69558552D01*
X140434251Y-69558555D01*
X140378317Y-69730706D01*
X140350000Y-69909493D01*
X140010500Y-69909493D01*
X140010500Y-69130249D01*
X140010499Y-69130247D01*
X139998868Y-69071770D01*
X139998867Y-69071769D01*
X139954552Y-69005447D01*
X139888230Y-68961132D01*
X139888229Y-68961131D01*
X139829752Y-68949500D01*
X139829748Y-68949500D01*
X138090252Y-68949500D01*
X138090247Y-68949500D01*
X138031770Y-68961131D01*
X138031769Y-68961132D01*
X137965447Y-69005447D01*
X137921132Y-69071769D01*
X137921131Y-69071770D01*
X137909500Y-69130247D01*
X130000500Y-69130247D01*
X130000500Y-66763543D01*
X137584499Y-66763543D01*
X137622947Y-66956829D01*
X137622950Y-66956839D01*
X137698364Y-67138907D01*
X137698371Y-67138920D01*
X137807860Y-67302781D01*
X137807863Y-67302785D01*
X137947214Y-67442136D01*
X137947218Y-67442139D01*
X138111079Y-67551628D01*
X138111092Y-67551635D01*
X138293160Y-67627049D01*
X138293165Y-67627051D01*
X138293169Y-67627051D01*
X138293170Y-67627052D01*
X138486456Y-67665500D01*
X138486459Y-67665500D01*
X138683543Y-67665500D01*
X138813582Y-67639632D01*
X138876835Y-67627051D01*
X139058914Y-67551632D01*
X139222782Y-67442139D01*
X139362139Y-67302782D01*
X139471632Y-67138914D01*
X139547051Y-66956835D01*
X139585500Y-66763543D01*
X145204499Y-66763543D01*
X145242947Y-66956829D01*
X145242950Y-66956839D01*
X145318364Y-67138907D01*
X145318371Y-67138920D01*
X145427860Y-67302781D01*
X145427863Y-67302785D01*
X145567214Y-67442136D01*
X145567218Y-67442139D01*
X145731079Y-67551628D01*
X145731092Y-67551635D01*
X145913160Y-67627049D01*
X145913165Y-67627051D01*
X145913169Y-67627051D01*
X145913170Y-67627052D01*
X146106456Y-67665500D01*
X146106459Y-67665500D01*
X146303543Y-67665500D01*
X146433582Y-67639632D01*
X146496835Y-67627051D01*
X146678914Y-67551632D01*
X146842782Y-67442139D01*
X146982139Y-67302782D01*
X147091632Y-67138914D01*
X147167051Y-66956835D01*
X147205500Y-66763541D01*
X147205500Y-66566459D01*
X147205500Y-66566456D01*
X147167052Y-66373170D01*
X147167051Y-66373169D01*
X147167051Y-66373165D01*
X147167049Y-66373160D01*
X147091635Y-66191092D01*
X147091628Y-66191079D01*
X146982139Y-66027218D01*
X146982136Y-66027214D01*
X146842785Y-65887863D01*
X146842781Y-65887860D01*
X146678920Y-65778371D01*
X146678907Y-65778364D01*
X146496839Y-65702950D01*
X146496829Y-65702947D01*
X146303543Y-65664500D01*
X146303541Y-65664500D01*
X146106459Y-65664500D01*
X146106457Y-65664500D01*
X145913170Y-65702947D01*
X145913160Y-65702950D01*
X145731092Y-65778364D01*
X145731079Y-65778371D01*
X145567218Y-65887860D01*
X145567214Y-65887863D01*
X145427863Y-66027214D01*
X145427860Y-66027218D01*
X145318371Y-66191079D01*
X145318364Y-66191092D01*
X145242950Y-66373160D01*
X145242947Y-66373170D01*
X145204500Y-66566456D01*
X145204500Y-66566459D01*
X145204500Y-66763541D01*
X145204500Y-66763543D01*
X145204499Y-66763543D01*
X139585500Y-66763543D01*
X139585500Y-66763541D01*
X139585500Y-66566459D01*
X139585500Y-66566456D01*
X139547052Y-66373170D01*
X139547051Y-66373169D01*
X139547051Y-66373165D01*
X139547049Y-66373160D01*
X139471635Y-66191092D01*
X139471628Y-66191079D01*
X139362139Y-66027218D01*
X139362136Y-66027214D01*
X139222785Y-65887863D01*
X139222781Y-65887860D01*
X139058920Y-65778371D01*
X139058907Y-65778364D01*
X138876839Y-65702950D01*
X138876829Y-65702947D01*
X138683543Y-65664500D01*
X138683541Y-65664500D01*
X138486459Y-65664500D01*
X138486457Y-65664500D01*
X138293170Y-65702947D01*
X138293160Y-65702950D01*
X138111092Y-65778364D01*
X138111079Y-65778371D01*
X137947218Y-65887860D01*
X137947214Y-65887863D01*
X137807863Y-66027214D01*
X137807860Y-66027218D01*
X137698371Y-66191079D01*
X137698364Y-66191092D01*
X137622950Y-66373160D01*
X137622947Y-66373170D01*
X137584500Y-66566456D01*
X137584500Y-66566459D01*
X137584500Y-66763541D01*
X137584500Y-66763543D01*
X137584499Y-66763543D01*
X130000500Y-66763543D01*
X130000500Y-64223543D01*
X137584499Y-64223543D01*
X137622947Y-64416829D01*
X137622950Y-64416839D01*
X137698364Y-64598907D01*
X137698371Y-64598920D01*
X137807860Y-64762781D01*
X137807863Y-64762785D01*
X137947214Y-64902136D01*
X137947218Y-64902139D01*
X138111079Y-65011628D01*
X138111092Y-65011635D01*
X138293160Y-65087049D01*
X138293165Y-65087051D01*
X138293169Y-65087051D01*
X138293170Y-65087052D01*
X138486456Y-65125500D01*
X138486459Y-65125500D01*
X138683543Y-65125500D01*
X138813582Y-65099632D01*
X138876835Y-65087051D01*
X139058914Y-65011632D01*
X139222782Y-64902139D01*
X139362139Y-64762782D01*
X139471632Y-64598914D01*
X139547051Y-64416835D01*
X139585500Y-64223543D01*
X145204499Y-64223543D01*
X145242947Y-64416829D01*
X145242950Y-64416839D01*
X145318364Y-64598907D01*
X145318371Y-64598920D01*
X145427860Y-64762781D01*
X145427863Y-64762785D01*
X145567214Y-64902136D01*
X145567218Y-64902139D01*
X145731079Y-65011628D01*
X145731092Y-65011635D01*
X145913160Y-65087049D01*
X145913165Y-65087051D01*
X145913169Y-65087051D01*
X145913170Y-65087052D01*
X146106456Y-65125500D01*
X146106459Y-65125500D01*
X146303543Y-65125500D01*
X146433582Y-65099632D01*
X146496835Y-65087051D01*
X146678914Y-65011632D01*
X146842782Y-64902139D01*
X146982139Y-64762782D01*
X147091632Y-64598914D01*
X147167051Y-64416835D01*
X147205500Y-64223541D01*
X147205500Y-64026459D01*
X147205500Y-64026456D01*
X147167052Y-63833170D01*
X147167051Y-63833169D01*
X147167051Y-63833165D01*
X147167049Y-63833160D01*
X147091635Y-63651092D01*
X147091628Y-63651079D01*
X146982139Y-63487218D01*
X146982136Y-63487214D01*
X146842785Y-63347863D01*
X146842781Y-63347860D01*
X146678920Y-63238371D01*
X146678907Y-63238364D01*
X146496839Y-63162950D01*
X146496829Y-63162947D01*
X146303543Y-63124500D01*
X146303541Y-63124500D01*
X146106459Y-63124500D01*
X146106457Y-63124500D01*
X145913170Y-63162947D01*
X145913160Y-63162950D01*
X145731092Y-63238364D01*
X145731079Y-63238371D01*
X145567218Y-63347860D01*
X145567214Y-63347863D01*
X145427863Y-63487214D01*
X145427860Y-63487218D01*
X145318371Y-63651079D01*
X145318364Y-63651092D01*
X145242950Y-63833160D01*
X145242947Y-63833170D01*
X145204500Y-64026456D01*
X145204500Y-64026459D01*
X145204500Y-64223541D01*
X145204500Y-64223543D01*
X145204499Y-64223543D01*
X139585500Y-64223543D01*
X139585500Y-64223541D01*
X139585500Y-64026459D01*
X139585500Y-64026456D01*
X139547052Y-63833170D01*
X139547051Y-63833169D01*
X139547051Y-63833165D01*
X139547049Y-63833160D01*
X139471635Y-63651092D01*
X139471628Y-63651079D01*
X139362139Y-63487218D01*
X139362136Y-63487214D01*
X139222785Y-63347863D01*
X139222781Y-63347860D01*
X139058920Y-63238371D01*
X139058907Y-63238364D01*
X138876839Y-63162950D01*
X138876829Y-63162947D01*
X138683543Y-63124500D01*
X138683541Y-63124500D01*
X138486459Y-63124500D01*
X138486457Y-63124500D01*
X138293170Y-63162947D01*
X138293160Y-63162950D01*
X138111092Y-63238364D01*
X138111079Y-63238371D01*
X137947218Y-63347860D01*
X137947214Y-63347863D01*
X137807863Y-63487214D01*
X137807860Y-63487218D01*
X137698371Y-63651079D01*
X137698364Y-63651092D01*
X137622950Y-63833160D01*
X137622947Y-63833170D01*
X137584500Y-64026456D01*
X137584500Y-64026459D01*
X137584500Y-64223541D01*
X137584500Y-64223543D01*
X137584499Y-64223543D01*
X130000500Y-64223543D01*
X130000500Y-61683543D01*
X137584499Y-61683543D01*
X137622947Y-61876829D01*
X137622950Y-61876839D01*
X137698364Y-62058907D01*
X137698371Y-62058920D01*
X137807860Y-62222781D01*
X137807863Y-62222785D01*
X137947214Y-62362136D01*
X137947218Y-62362139D01*
X138111079Y-62471628D01*
X138111092Y-62471635D01*
X138293160Y-62547049D01*
X138293165Y-62547051D01*
X138293169Y-62547051D01*
X138293170Y-62547052D01*
X138486456Y-62585500D01*
X138486459Y-62585500D01*
X138683543Y-62585500D01*
X138813582Y-62559632D01*
X138876835Y-62547051D01*
X139058914Y-62471632D01*
X139222782Y-62362139D01*
X139362139Y-62222782D01*
X139471632Y-62058914D01*
X139547051Y-61876835D01*
X139569297Y-61764999D01*
X139585500Y-61683543D01*
X145204499Y-61683543D01*
X145242947Y-61876829D01*
X145242950Y-61876839D01*
X145318364Y-62058907D01*
X145318371Y-62058920D01*
X145427860Y-62222781D01*
X145427863Y-62222785D01*
X145567214Y-62362136D01*
X145567218Y-62362139D01*
X145731079Y-62471628D01*
X145731092Y-62471635D01*
X145913160Y-62547049D01*
X145913165Y-62547051D01*
X145913169Y-62547051D01*
X145913170Y-62547052D01*
X146106456Y-62585500D01*
X146106459Y-62585500D01*
X146303543Y-62585500D01*
X146433582Y-62559632D01*
X146496835Y-62547051D01*
X146536100Y-62530786D01*
X146572394Y-62515754D01*
X146678907Y-62471635D01*
X146678907Y-62471634D01*
X146678914Y-62471632D01*
X146842782Y-62362139D01*
X146982139Y-62222782D01*
X147091632Y-62058914D01*
X147167051Y-61876835D01*
X147189297Y-61764999D01*
X147205500Y-61683543D01*
X147205500Y-61674493D01*
X150350000Y-61674493D01*
X150350000Y-61855506D01*
X150378317Y-62034293D01*
X150434251Y-62206444D01*
X150434252Y-62206447D01*
X150516432Y-62367731D01*
X150587424Y-62465442D01*
X150587425Y-62465443D01*
X151056329Y-61996538D01*
X151099901Y-62072007D01*
X151192993Y-62165099D01*
X151268460Y-62208670D01*
X150799555Y-62677574D01*
X150897268Y-62748567D01*
X151058552Y-62830747D01*
X151058555Y-62830748D01*
X151230706Y-62886682D01*
X151409494Y-62915000D01*
X151590506Y-62915000D01*
X151769293Y-62886682D01*
X151941444Y-62830748D01*
X151941447Y-62830747D01*
X152102730Y-62748568D01*
X152200442Y-62677574D01*
X152200443Y-62677574D01*
X151731539Y-62208670D01*
X151807007Y-62165099D01*
X151900099Y-62072007D01*
X151943670Y-61996538D01*
X152412574Y-62465443D01*
X152412574Y-62465442D01*
X152483568Y-62367730D01*
X152565747Y-62206447D01*
X152565748Y-62206444D01*
X152621682Y-62034293D01*
X152650000Y-61855506D01*
X152650000Y-61674493D01*
X152621682Y-61495706D01*
X152565748Y-61323555D01*
X152565747Y-61323552D01*
X152483567Y-61162268D01*
X152412574Y-61064556D01*
X152412574Y-61064555D01*
X151943670Y-61533460D01*
X151900099Y-61457993D01*
X151807007Y-61364901D01*
X151731539Y-61321329D01*
X152200443Y-60852425D01*
X152200442Y-60852424D01*
X152102731Y-60781432D01*
X151941447Y-60699252D01*
X151941444Y-60699251D01*
X151769293Y-60643317D01*
X151590506Y-60615000D01*
X151409494Y-60615000D01*
X151230706Y-60643317D01*
X151058555Y-60699251D01*
X151058552Y-60699252D01*
X150897265Y-60781434D01*
X150799556Y-60852423D01*
X150799556Y-60852425D01*
X151268461Y-61321329D01*
X151192993Y-61364901D01*
X151099901Y-61457993D01*
X151056329Y-61533460D01*
X150587425Y-61064556D01*
X150587423Y-61064556D01*
X150516434Y-61162265D01*
X150434252Y-61323552D01*
X150434251Y-61323555D01*
X150378317Y-61495706D01*
X150350000Y-61674493D01*
X147205500Y-61674493D01*
X147205500Y-61486456D01*
X147167052Y-61293170D01*
X147167051Y-61293169D01*
X147167051Y-61293165D01*
X147155385Y-61265000D01*
X147091635Y-61111092D01*
X147091628Y-61111079D01*
X146996411Y-60968577D01*
X146996410Y-60968576D01*
X146982136Y-60947214D01*
X146842785Y-60807863D01*
X146842781Y-60807860D01*
X146678920Y-60698371D01*
X146678907Y-60698364D01*
X146496839Y-60622950D01*
X146496829Y-60622947D01*
X146303543Y-60584500D01*
X146303541Y-60584500D01*
X146106459Y-60584500D01*
X146106457Y-60584500D01*
X145913170Y-60622947D01*
X145913160Y-60622950D01*
X145731092Y-60698364D01*
X145731079Y-60698371D01*
X145567218Y-60807860D01*
X145567214Y-60807863D01*
X145427863Y-60947214D01*
X145427860Y-60947218D01*
X145318371Y-61111079D01*
X145318364Y-61111092D01*
X145242950Y-61293160D01*
X145242947Y-61293170D01*
X145204500Y-61486456D01*
X145204500Y-61486459D01*
X145204500Y-61683541D01*
X145204500Y-61683543D01*
X145204499Y-61683543D01*
X139585500Y-61683543D01*
X139585500Y-61486456D01*
X139547052Y-61293170D01*
X139547051Y-61293169D01*
X139547051Y-61293165D01*
X139535385Y-61265000D01*
X139471635Y-61111092D01*
X139471628Y-61111079D01*
X139362139Y-60947218D01*
X139362136Y-60947214D01*
X139222785Y-60807863D01*
X139222781Y-60807860D01*
X139058920Y-60698371D01*
X139058907Y-60698364D01*
X138876839Y-60622950D01*
X138876829Y-60622947D01*
X138683543Y-60584500D01*
X138683541Y-60584500D01*
X138486459Y-60584500D01*
X138486457Y-60584500D01*
X138293170Y-60622947D01*
X138293160Y-60622950D01*
X138111092Y-60698364D01*
X138111079Y-60698371D01*
X137947218Y-60807860D01*
X137947214Y-60807863D01*
X137807863Y-60947214D01*
X137807860Y-60947218D01*
X137698371Y-61111079D01*
X137698364Y-61111092D01*
X137622950Y-61293160D01*
X137622947Y-61293170D01*
X137584500Y-61486456D01*
X137584500Y-61486459D01*
X137584500Y-61683541D01*
X137584500Y-61683543D01*
X137584499Y-61683543D01*
X130000500Y-61683543D01*
X130000500Y-58451946D01*
X137485000Y-58451946D01*
X137485000Y-58895000D01*
X138211082Y-58895000D01*
X138185000Y-58992339D01*
X138185000Y-59097661D01*
X138211082Y-59195000D01*
X137485000Y-59195000D01*
X137485000Y-59638053D01*
X137495613Y-59726443D01*
X137551079Y-59867095D01*
X137642435Y-59987564D01*
X137762904Y-60078920D01*
X137903556Y-60134386D01*
X137991946Y-60145000D01*
X138435000Y-60145000D01*
X138435000Y-59418918D01*
X138532339Y-59445000D01*
X138637661Y-59445000D01*
X138735000Y-59418918D01*
X138735000Y-60145000D01*
X139178054Y-60145000D01*
X139266443Y-60134386D01*
X139407095Y-60078920D01*
X139527564Y-59987564D01*
X139618920Y-59867095D01*
X139674386Y-59726443D01*
X139685000Y-59638053D01*
X139685000Y-59195000D01*
X138958918Y-59195000D01*
X138972706Y-59143543D01*
X145204499Y-59143543D01*
X145242947Y-59336829D01*
X145242950Y-59336839D01*
X145318364Y-59518907D01*
X145318371Y-59518920D01*
X145427860Y-59682781D01*
X145427863Y-59682785D01*
X145567214Y-59822136D01*
X145567218Y-59822139D01*
X145731079Y-59931628D01*
X145731092Y-59931635D01*
X145913160Y-60007049D01*
X145913165Y-60007051D01*
X145913169Y-60007051D01*
X145913170Y-60007052D01*
X146106456Y-60045500D01*
X146106459Y-60045500D01*
X146303543Y-60045500D01*
X146433582Y-60019632D01*
X146496835Y-60007051D01*
X146678914Y-59931632D01*
X146842782Y-59822139D01*
X146982139Y-59682782D01*
X147091632Y-59518914D01*
X147167051Y-59336835D01*
X147205500Y-59143541D01*
X147205500Y-58946459D01*
X147205500Y-58946456D01*
X147167052Y-58753170D01*
X147167051Y-58753169D01*
X147167051Y-58753165D01*
X147122248Y-58645000D01*
X147091635Y-58571092D01*
X147091628Y-58571079D01*
X146989378Y-58418051D01*
X146989377Y-58418050D01*
X146982141Y-58407220D01*
X146982136Y-58407214D01*
X146930169Y-58355247D01*
X150449500Y-58355247D01*
X150449500Y-60094752D01*
X150461131Y-60153229D01*
X150461132Y-60153230D01*
X150505447Y-60219552D01*
X150571769Y-60263867D01*
X150571770Y-60263868D01*
X150630247Y-60275499D01*
X150630250Y-60275500D01*
X150630252Y-60275500D01*
X152369750Y-60275500D01*
X152369751Y-60275499D01*
X152384568Y-60272552D01*
X152428229Y-60263868D01*
X152428229Y-60263867D01*
X152428231Y-60263867D01*
X152494552Y-60219552D01*
X152538867Y-60153231D01*
X152538867Y-60153229D01*
X152538868Y-60153229D01*
X152550499Y-60094752D01*
X152550500Y-60094750D01*
X152550500Y-58355249D01*
X152550499Y-58355247D01*
X152538868Y-58296770D01*
X152538867Y-58296769D01*
X152494552Y-58230447D01*
X152428230Y-58186132D01*
X152428229Y-58186131D01*
X152369752Y-58174500D01*
X152369748Y-58174500D01*
X150630252Y-58174500D01*
X150630247Y-58174500D01*
X150571770Y-58186131D01*
X150571769Y-58186132D01*
X150505447Y-58230447D01*
X150461132Y-58296769D01*
X150461131Y-58296770D01*
X150449500Y-58355247D01*
X146930169Y-58355247D01*
X146842785Y-58267863D01*
X146842781Y-58267860D01*
X146678920Y-58158371D01*
X146678907Y-58158364D01*
X146496839Y-58082950D01*
X146496829Y-58082947D01*
X146303543Y-58044500D01*
X146303541Y-58044500D01*
X146106459Y-58044500D01*
X146106457Y-58044500D01*
X145913170Y-58082947D01*
X145913160Y-58082950D01*
X145731092Y-58158364D01*
X145731079Y-58158371D01*
X145567218Y-58267860D01*
X145567214Y-58267863D01*
X145427863Y-58407214D01*
X145427860Y-58407218D01*
X145318371Y-58571079D01*
X145318364Y-58571092D01*
X145242950Y-58753160D01*
X145242947Y-58753170D01*
X145204500Y-58946456D01*
X145204500Y-58946459D01*
X145204500Y-59143541D01*
X145204500Y-59143543D01*
X145204499Y-59143543D01*
X138972706Y-59143543D01*
X138985000Y-59097661D01*
X138985000Y-58992339D01*
X138958918Y-58895000D01*
X139685000Y-58895000D01*
X139685000Y-58451946D01*
X139674386Y-58363556D01*
X139618920Y-58222904D01*
X139527564Y-58102435D01*
X139407095Y-58011079D01*
X139266443Y-57955613D01*
X139178054Y-57945000D01*
X138735000Y-57945000D01*
X138735000Y-58671081D01*
X138637661Y-58645000D01*
X138532339Y-58645000D01*
X138435000Y-58671081D01*
X138435000Y-57945000D01*
X137991946Y-57945000D01*
X137903556Y-57955613D01*
X137762904Y-58011079D01*
X137642435Y-58102435D01*
X137551079Y-58222904D01*
X137495613Y-58363556D01*
X137485000Y-58451946D01*
X130000500Y-58451946D01*
X130000500Y-54124500D01*
X130020185Y-54057461D01*
X130072989Y-54011706D01*
X130124500Y-54000500D01*
X163375500Y-54000500D01*
X163442539Y-54020185D01*
G37*
%TD.AperFunction*%
%TD*%
M02*
