%TF.GenerationSoftware,KiCad,Pcbnew,10.0.6*%
%TF.CreationDate,2026-10-05T23:06:57+06:00*%
%TF.ProjectId,555_Timer_LED_Blinker,3535355f-5469-46d6-9572-5f4c45445f42,rev?*%
%TF.SameCoordinates,Original*%
%TF.FileFunction,Legend,Top*%
%TF.FilePolarity,Positive*%
%FSLAX46Y46*%
G04 Gerber Fmt 4.6, Leading zero omitted, Abs format (unit mm)*
G04 Created by KiCad (PCBNEW 10.0.6) date 2026-10-05 23:06:57*
%MOMM*%
%LPD*%
G01*
G04 APERTURE LIST*
%ADD10C,0.150000*%
%ADD11C,0.120000*%
G04 APERTURE END LIST*
D10*
X158333333Y-55359580D02*
X158285714Y-55407200D01*
X158285714Y-55407200D02*
X158142857Y-55454819D01*
X158142857Y-55454819D02*
X158047619Y-55454819D01*
X158047619Y-55454819D02*
X157904762Y-55407200D01*
X157904762Y-55407200D02*
X157809524Y-55311961D01*
X157809524Y-55311961D02*
X157761905Y-55216723D01*
X157761905Y-55216723D02*
X157714286Y-55026247D01*
X157714286Y-55026247D02*
X157714286Y-54883390D01*
X157714286Y-54883390D02*
X157761905Y-54692914D01*
X157761905Y-54692914D02*
X157809524Y-54597676D01*
X157809524Y-54597676D02*
X157904762Y-54502438D01*
X157904762Y-54502438D02*
X158047619Y-54454819D01*
X158047619Y-54454819D02*
X158142857Y-54454819D01*
X158142857Y-54454819D02*
X158285714Y-54502438D01*
X158285714Y-54502438D02*
X158333333Y-54550057D01*
X159285714Y-55454819D02*
X158714286Y-55454819D01*
X159000000Y-55454819D02*
X159000000Y-54454819D01*
X159000000Y-54454819D02*
X158904762Y-54597676D01*
X158904762Y-54597676D02*
X158809524Y-54692914D01*
X158809524Y-54692914D02*
X158714286Y-54740533D01*
X148333333Y-65954819D02*
X148000000Y-65478628D01*
X147761905Y-65954819D02*
X147761905Y-64954819D01*
X147761905Y-64954819D02*
X148142857Y-64954819D01*
X148142857Y-64954819D02*
X148238095Y-65002438D01*
X148238095Y-65002438D02*
X148285714Y-65050057D01*
X148285714Y-65050057D02*
X148333333Y-65145295D01*
X148333333Y-65145295D02*
X148333333Y-65288152D01*
X148333333Y-65288152D02*
X148285714Y-65383390D01*
X148285714Y-65383390D02*
X148238095Y-65431009D01*
X148238095Y-65431009D02*
X148142857Y-65478628D01*
X148142857Y-65478628D02*
X147761905Y-65478628D01*
X148714286Y-65050057D02*
X148761905Y-65002438D01*
X148761905Y-65002438D02*
X148857143Y-64954819D01*
X148857143Y-64954819D02*
X149095238Y-64954819D01*
X149095238Y-64954819D02*
X149190476Y-65002438D01*
X149190476Y-65002438D02*
X149238095Y-65050057D01*
X149238095Y-65050057D02*
X149285714Y-65145295D01*
X149285714Y-65145295D02*
X149285714Y-65240533D01*
X149285714Y-65240533D02*
X149238095Y-65383390D01*
X149238095Y-65383390D02*
X148666667Y-65954819D01*
X148666667Y-65954819D02*
X149285714Y-65954819D01*
X148333333Y-56629819D02*
X148000000Y-56153628D01*
X147761905Y-56629819D02*
X147761905Y-55629819D01*
X147761905Y-55629819D02*
X148142857Y-55629819D01*
X148142857Y-55629819D02*
X148238095Y-55677438D01*
X148238095Y-55677438D02*
X148285714Y-55725057D01*
X148285714Y-55725057D02*
X148333333Y-55820295D01*
X148333333Y-55820295D02*
X148333333Y-55963152D01*
X148333333Y-55963152D02*
X148285714Y-56058390D01*
X148285714Y-56058390D02*
X148238095Y-56106009D01*
X148238095Y-56106009D02*
X148142857Y-56153628D01*
X148142857Y-56153628D02*
X147761905Y-56153628D01*
X149285714Y-56629819D02*
X148714286Y-56629819D01*
X149000000Y-56629819D02*
X149000000Y-55629819D01*
X149000000Y-55629819D02*
X148904762Y-55772676D01*
X148904762Y-55772676D02*
X148809524Y-55867914D01*
X148809524Y-55867914D02*
X148714286Y-55915533D01*
X151166666Y-55719819D02*
X151166666Y-56434104D01*
X151166666Y-56434104D02*
X151119047Y-56576961D01*
X151119047Y-56576961D02*
X151023809Y-56672200D01*
X151023809Y-56672200D02*
X150880952Y-56719819D01*
X150880952Y-56719819D02*
X150785714Y-56719819D01*
X151595238Y-55815057D02*
X151642857Y-55767438D01*
X151642857Y-55767438D02*
X151738095Y-55719819D01*
X151738095Y-55719819D02*
X151976190Y-55719819D01*
X151976190Y-55719819D02*
X152071428Y-55767438D01*
X152071428Y-55767438D02*
X152119047Y-55815057D01*
X152119047Y-55815057D02*
X152166666Y-55910295D01*
X152166666Y-55910295D02*
X152166666Y-56005533D01*
X152166666Y-56005533D02*
X152119047Y-56148390D01*
X152119047Y-56148390D02*
X151547619Y-56719819D01*
X151547619Y-56719819D02*
X152166666Y-56719819D01*
X141633095Y-55954819D02*
X141633095Y-56764342D01*
X141633095Y-56764342D02*
X141680714Y-56859580D01*
X141680714Y-56859580D02*
X141728333Y-56907200D01*
X141728333Y-56907200D02*
X141823571Y-56954819D01*
X141823571Y-56954819D02*
X142014047Y-56954819D01*
X142014047Y-56954819D02*
X142109285Y-56907200D01*
X142109285Y-56907200D02*
X142156904Y-56859580D01*
X142156904Y-56859580D02*
X142204523Y-56764342D01*
X142204523Y-56764342D02*
X142204523Y-55954819D01*
X143204523Y-56954819D02*
X142633095Y-56954819D01*
X142918809Y-56954819D02*
X142918809Y-55954819D01*
X142918809Y-55954819D02*
X142823571Y-56097676D01*
X142823571Y-56097676D02*
X142728333Y-56192914D01*
X142728333Y-56192914D02*
X142633095Y-56240533D01*
X133833333Y-64454819D02*
X133500000Y-63978628D01*
X133261905Y-64454819D02*
X133261905Y-63454819D01*
X133261905Y-63454819D02*
X133642857Y-63454819D01*
X133642857Y-63454819D02*
X133738095Y-63502438D01*
X133738095Y-63502438D02*
X133785714Y-63550057D01*
X133785714Y-63550057D02*
X133833333Y-63645295D01*
X133833333Y-63645295D02*
X133833333Y-63788152D01*
X133833333Y-63788152D02*
X133785714Y-63883390D01*
X133785714Y-63883390D02*
X133738095Y-63931009D01*
X133738095Y-63931009D02*
X133642857Y-63978628D01*
X133642857Y-63978628D02*
X133261905Y-63978628D01*
X134166667Y-63454819D02*
X134785714Y-63454819D01*
X134785714Y-63454819D02*
X134452381Y-63835771D01*
X134452381Y-63835771D02*
X134595238Y-63835771D01*
X134595238Y-63835771D02*
X134690476Y-63883390D01*
X134690476Y-63883390D02*
X134738095Y-63931009D01*
X134738095Y-63931009D02*
X134785714Y-64026247D01*
X134785714Y-64026247D02*
X134785714Y-64264342D01*
X134785714Y-64264342D02*
X134738095Y-64359580D01*
X134738095Y-64359580D02*
X134690476Y-64407200D01*
X134690476Y-64407200D02*
X134595238Y-64454819D01*
X134595238Y-64454819D02*
X134309524Y-64454819D01*
X134309524Y-64454819D02*
X134214286Y-64407200D01*
X134214286Y-64407200D02*
X134166667Y-64359580D01*
X144166666Y-69454819D02*
X144166666Y-70169104D01*
X144166666Y-70169104D02*
X144119047Y-70311961D01*
X144119047Y-70311961D02*
X144023809Y-70407200D01*
X144023809Y-70407200D02*
X143880952Y-70454819D01*
X143880952Y-70454819D02*
X143785714Y-70454819D01*
X145166666Y-70454819D02*
X144595238Y-70454819D01*
X144880952Y-70454819D02*
X144880952Y-69454819D01*
X144880952Y-69454819D02*
X144785714Y-69597676D01*
X144785714Y-69597676D02*
X144690476Y-69692914D01*
X144690476Y-69692914D02*
X144595238Y-69740533D01*
X133261905Y-66954819D02*
X133261905Y-65954819D01*
X133261905Y-65954819D02*
X133500000Y-65954819D01*
X133500000Y-65954819D02*
X133642857Y-66002438D01*
X133642857Y-66002438D02*
X133738095Y-66097676D01*
X133738095Y-66097676D02*
X133785714Y-66192914D01*
X133785714Y-66192914D02*
X133833333Y-66383390D01*
X133833333Y-66383390D02*
X133833333Y-66526247D01*
X133833333Y-66526247D02*
X133785714Y-66716723D01*
X133785714Y-66716723D02*
X133738095Y-66811961D01*
X133738095Y-66811961D02*
X133642857Y-66907200D01*
X133642857Y-66907200D02*
X133500000Y-66954819D01*
X133500000Y-66954819D02*
X133261905Y-66954819D01*
X134785714Y-66954819D02*
X134214286Y-66954819D01*
X134500000Y-66954819D02*
X134500000Y-65954819D01*
X134500000Y-65954819D02*
X134404762Y-66097676D01*
X134404762Y-66097676D02*
X134309524Y-66192914D01*
X134309524Y-66192914D02*
X134214286Y-66240533D01*
X148833333Y-69859580D02*
X148785714Y-69907200D01*
X148785714Y-69907200D02*
X148642857Y-69954819D01*
X148642857Y-69954819D02*
X148547619Y-69954819D01*
X148547619Y-69954819D02*
X148404762Y-69907200D01*
X148404762Y-69907200D02*
X148309524Y-69811961D01*
X148309524Y-69811961D02*
X148261905Y-69716723D01*
X148261905Y-69716723D02*
X148214286Y-69526247D01*
X148214286Y-69526247D02*
X148214286Y-69383390D01*
X148214286Y-69383390D02*
X148261905Y-69192914D01*
X148261905Y-69192914D02*
X148309524Y-69097676D01*
X148309524Y-69097676D02*
X148404762Y-69002438D01*
X148404762Y-69002438D02*
X148547619Y-68954819D01*
X148547619Y-68954819D02*
X148642857Y-68954819D01*
X148642857Y-68954819D02*
X148785714Y-69002438D01*
X148785714Y-69002438D02*
X148833333Y-69050057D01*
X149166667Y-68954819D02*
X149785714Y-68954819D01*
X149785714Y-68954819D02*
X149452381Y-69335771D01*
X149452381Y-69335771D02*
X149595238Y-69335771D01*
X149595238Y-69335771D02*
X149690476Y-69383390D01*
X149690476Y-69383390D02*
X149738095Y-69431009D01*
X149738095Y-69431009D02*
X149785714Y-69526247D01*
X149785714Y-69526247D02*
X149785714Y-69764342D01*
X149785714Y-69764342D02*
X149738095Y-69859580D01*
X149738095Y-69859580D02*
X149690476Y-69907200D01*
X149690476Y-69907200D02*
X149595238Y-69954819D01*
X149595238Y-69954819D02*
X149309524Y-69954819D01*
X149309524Y-69954819D02*
X149214286Y-69907200D01*
X149214286Y-69907200D02*
X149166667Y-69859580D01*
X133633333Y-56859580D02*
X133585714Y-56907200D01*
X133585714Y-56907200D02*
X133442857Y-56954819D01*
X133442857Y-56954819D02*
X133347619Y-56954819D01*
X133347619Y-56954819D02*
X133204762Y-56907200D01*
X133204762Y-56907200D02*
X133109524Y-56811961D01*
X133109524Y-56811961D02*
X133061905Y-56716723D01*
X133061905Y-56716723D02*
X133014286Y-56526247D01*
X133014286Y-56526247D02*
X133014286Y-56383390D01*
X133014286Y-56383390D02*
X133061905Y-56192914D01*
X133061905Y-56192914D02*
X133109524Y-56097676D01*
X133109524Y-56097676D02*
X133204762Y-56002438D01*
X133204762Y-56002438D02*
X133347619Y-55954819D01*
X133347619Y-55954819D02*
X133442857Y-55954819D01*
X133442857Y-55954819D02*
X133585714Y-56002438D01*
X133585714Y-56002438D02*
X133633333Y-56050057D01*
X134014286Y-56050057D02*
X134061905Y-56002438D01*
X134061905Y-56002438D02*
X134157143Y-55954819D01*
X134157143Y-55954819D02*
X134395238Y-55954819D01*
X134395238Y-55954819D02*
X134490476Y-56002438D01*
X134490476Y-56002438D02*
X134538095Y-56050057D01*
X134538095Y-56050057D02*
X134585714Y-56145295D01*
X134585714Y-56145295D02*
X134585714Y-56240533D01*
X134585714Y-56240533D02*
X134538095Y-56383390D01*
X134538095Y-56383390D02*
X133966667Y-56954819D01*
X133966667Y-56954819D02*
X134585714Y-56954819D01*
%TO.C,C1*%
D11*
X153562500Y-58152500D02*
X154350000Y-58152500D01*
X153956250Y-57758750D02*
X153956250Y-58546250D01*
X154590000Y-57654437D02*
X154590000Y-58940000D01*
X154590000Y-57654437D02*
X155654437Y-56590000D01*
X154590000Y-62345563D02*
X154590000Y-61060000D01*
X154590000Y-62345563D02*
X155654437Y-63410000D01*
X155654437Y-56590000D02*
X161410000Y-56590000D01*
X155654437Y-63410000D02*
X161410000Y-63410000D01*
X161410000Y-56590000D02*
X161410000Y-58940000D01*
X161410000Y-63410000D02*
X161410000Y-61060000D01*
%TO.C,R2*%
X147765000Y-62360436D02*
X147765000Y-62814564D01*
X149235000Y-62360436D02*
X149235000Y-62814564D01*
%TO.C,R1*%
X147765000Y-58860436D02*
X147765000Y-59314564D01*
X149235000Y-58860436D02*
X149235000Y-59314564D01*
%TO.C,J2*%
X150120000Y-57845000D02*
X151500000Y-57845000D01*
X150120000Y-59225000D02*
X150120000Y-57845000D01*
X150120000Y-60495000D02*
X150120000Y-63145000D01*
X150120000Y-60495000D02*
X152880000Y-60495000D01*
X150120000Y-63145000D02*
X152880000Y-63145000D01*
X152880000Y-60495000D02*
X152880000Y-63145000D01*
%TO.C,U1*%
X143395000Y-57715000D02*
G75*
G02*
X141395000Y-57715000I-1000000J0D01*
G01*
X145045000Y-67995000D02*
X145045000Y-57715000D01*
X145045000Y-57715000D02*
X143395000Y-57715000D01*
X141395000Y-57715000D02*
X139745000Y-57715000D01*
X139745000Y-67995000D02*
X145045000Y-67995000D01*
X139745000Y-57715000D02*
X139745000Y-67995000D01*
%TO.C,R3*%
X137147500Y-63772936D02*
X137147500Y-64227064D01*
X135677500Y-63772936D02*
X135677500Y-64227064D01*
%TO.C,J1*%
X140230000Y-68620000D02*
X142880000Y-68620000D01*
X142880000Y-71380000D02*
X142880000Y-68620000D01*
X140230000Y-71380000D02*
X140230000Y-68620000D01*
X140230000Y-71380000D02*
X142880000Y-71380000D01*
X138960000Y-71380000D02*
X137580000Y-71380000D01*
X137580000Y-71380000D02*
X137580000Y-70000000D01*
%TO.C,D1*%
X135040000Y-69185000D02*
X136960000Y-69185000D01*
X136960000Y-69185000D02*
X136960000Y-66500000D01*
X135040000Y-66500000D02*
X135040000Y-69185000D01*
%TO.C,C3*%
X148788748Y-68235000D02*
X149311252Y-68235000D01*
X148788748Y-66765000D02*
X149311252Y-66765000D01*
%TO.C,C2*%
X137000000Y-61560000D02*
X136500000Y-61560000D01*
X136750000Y-61810000D02*
X136750000Y-61310000D01*
X136260000Y-61195563D02*
X136260000Y-61060000D01*
X136260000Y-61195563D02*
X135195563Y-62260000D01*
X136260000Y-58804437D02*
X136260000Y-58940000D01*
X136260000Y-58804437D02*
X135195563Y-57740000D01*
X135195563Y-62260000D02*
X131740000Y-62260000D01*
X135195563Y-57740000D02*
X131740000Y-57740000D01*
X131740000Y-62260000D02*
X131740000Y-61060000D01*
X131740000Y-57740000D02*
X131740000Y-58940000D01*
%TD*%
M02*
