<svg xmlns="http://www.w3.org/2000/svg" xmlns:xlink="http://www.w3.org/1999/xlink" width="1000" height="1280" viewBox="0 0 28 35.84"><rect width="28" height="35.84" fill="#151b23"/><text x="3" y="1.6" font-family="Arial,sans-serif" font-size="1" font-weight="bold" fill="white">Bottom copper — underside view</text><text x="3" y="2.9" font-family="Arial,sans-serif" font-size="0.65" fill="#b7c5d5">Blue: ground fill · Salmon: labels · White: holes/outline</text><g transform="translate(3 4.5)">
<title>SVG Image created as usb-bottom.svg date 2026-10-09T19:36:54 </title>
  <desc>Image generated by PCBNEW </desc>
<g style="fill:#000000; fill-opacity:1.0000;stroke:#000000; stroke-opacity:1.0000;
stroke-linecap:round; stroke-linejoin:round;"
 transform="translate(0 0) scale(1 1)">
<path style="fill:#4D7FC4; fill-opacity:1.0000; stroke:none;fill-rule:evenodd;"
d="M 13.3264,4.3465
15.0264,4.3465
15.0264,2.6465
13.3264,2.6465
Z" /> 
</g>
<g style="fill:#4D7FC4; fill-opacity:1.0000; stroke:none;">
<circle cx="11.6364" cy="3.4965" r="0.8500" /> 
<circle cx="9.0964" cy="3.4965" r="0.8500" /> 
<circle cx="6.5564" cy="3.4965" r="0.8500" /> 
</g>
<g style="fill:none; 
stroke:#4D7FC4; stroke-width:1.0000; stroke-opacity:1; 
stroke-linecap:round; stroke-linejoin:round;">
<path d="M15.5614 18.1365
L15.5614 19.2365
" />
<path d="M15.5614 22.4665
L15.5614 23.2665
" />
<path d="M6.9214 18.1365
L6.9214 19.2365
" />
<path d="M6.9214 22.4665
L6.9214 23.2665
" />
<path style="fill:#4D7FC4; fill-opacity:1.0000; stroke:none;fill-rule:evenodd;"
d="M 4.3464,8.4065
4.3464,6.7065
2.6464,6.7065
2.6464,8.4065
Z" /> 
</g>
<g style="fill:#4D7FC4; fill-opacity:1.0000; stroke:none;">
<circle cx="3.4964" cy="10.0965" r="0.8500" /> 
<circle cx="3.4964" cy="12.6365" r="0.8500" /> 
<circle cx="3.4964" cy="15.1765" r="0.8500" /> 
<circle cx="8.7464" cy="13.5465" r="0.3000" /> 
<circle cx="14.2464" cy="6.7965" r="0.3000" /> 
<circle cx="7.1216" cy="13.6557" r="0.3000" /> 
<circle cx="7.9964" cy="17.2965" r="0.3000" /> 
<circle cx="18.2464" cy="11.5465" r="0.3000" /> 
<circle cx="10.4964" cy="13.5465" r="0.3000" /> 
<circle cx="15.4964" cy="16.5465" r="0.3000" /> 
<circle cx="19.2464" cy="13.2965" r="0.3000" /> 
<circle cx="14.4964" cy="17.2965" r="0.3000" /> 
<path style="fill:#4D7FC4; fill-opacity:1.0000; stroke:none;fill-rule:evenodd;"
d="M 0.5539,0.5202
0.5081,0.5730
0.4969,0.6245
0.4969,24.8755
0.5166,24.9425
0.5694,24.9883
0.6209,24.9995
21.3719,24.9995
21.4389,24.9798
21.4847,24.9270
21.4959,24.8755
21.4959,22.3926
16.3114,22.3926
16.3114,22.7165
15.8614,22.7165
15.8614,23.0165
16.3114,23.0165
16.3114,23.3404
16.2826,23.4853
16.2826,23.4853
16.2260,23.6217
16.2260,23.6218
16.1440,23.7446
16.1440,23.7446
16.0395,23.8491
16.0395,23.8491
15.9167,23.9311
15.9167,23.9311
15.7802,23.9877
15.7802,23.9877
15.7114,24.0013
15.7114,24.0013
15.7114,23.5263
15.6772,23.5460
15.6009,23.5665
15.5219,23.5665
15.4456,23.5460
15.4114,23.5263
15.4114,24.0013
15.3426,23.9877
15.3426,23.9877
15.2061,23.9311
15.2061,23.9311
15.0833,23.8491
15.0833,23.8491
14.9788,23.7446
14.9788,23.7446
14.8968,23.6218
14.8968,23.6217
14.8402,23.4853
14.8402,23.4853
14.8114,23.3404
14.8114,23.3404
14.8114,23.0165
15.2614,23.0165
15.2614,22.7165
14.8114,22.7165
14.8114,22.3926
14.8114,22.3926
7.6714,22.3926
7.6714,22.7165
7.2214,22.7165
7.2214,23.0165
7.6714,23.0165
7.6714,23.3404
7.6426,23.4853
7.6426,23.4853
7.5860,23.6217
7.5860,23.6218
7.5040,23.7446
7.5040,23.7446
7.3995,23.8491
7.3995,23.8491
7.2767,23.9311
7.2767,23.9311
7.1402,23.9877
7.1402,23.9877
7.0714,24.0013
7.0714,24.0013
7.0714,23.5263
7.0372,23.5460
6.9609,23.5665
6.8819,23.5665
6.8056,23.5460
6.7714,23.5263
6.7714,24.0013
6.7026,23.9877
6.7026,23.9877
6.5661,23.9311
6.5661,23.9311
6.4433,23.8491
6.4433,23.8491
6.3388,23.7446
6.3388,23.7446
6.2568,23.6218
6.2568,23.6217
6.2002,23.4853
6.2002,23.4853
6.1714,23.3404
6.1714,23.3404
6.1714,23.0165
6.6214,23.0165
6.6214,22.7165
6.1714,22.7165
6.1714,22.3926
6.1714,22.3926
6.2002,22.2477
6.2002,22.2477
6.2568,22.1112
6.2568,22.1112
6.3388,21.9884
6.3388,21.9884
6.4433,21.8839
6.4433,21.8839
6.5661,21.8019
6.5661,21.8019
6.7026,21.7453
6.7026,21.7453
6.7714,21.7316
6.7714,22.2067
6.8056,22.1869
6.8819,22.1665
6.9609,22.1665
7.0372,22.1869
7.0714,22.2067
7.0714,21.7316
7.0714,21.7316
7.1402,21.7453
7.1402,21.7453
7.2767,21.8019
7.2767,21.8019
7.3995,21.8839
7.3995,21.8839
7.5040,21.9884
7.5040,21.9884
7.5860,22.1112
7.5860,22.1112
7.6426,22.2477
7.6426,22.2477
7.6714,22.3926
14.8114,22.3926
14.8402,22.2477
14.8402,22.2477
14.8968,22.1112
14.8968,22.1112
14.9788,21.9884
14.9788,21.9884
15.0833,21.8839
15.0833,21.8839
15.2061,21.8019
15.2061,21.8019
15.3426,21.7453
15.3426,21.7453
15.4114,21.7316
15.4114,22.2067
15.4456,22.1869
15.5219,22.1665
15.6009,22.1665
15.6772,22.1869
15.7114,22.2067
15.7114,21.7316
15.7114,21.7316
15.7802,21.7453
15.7802,21.7453
15.9167,21.8019
15.9167,21.8019
16.0395,21.8839
16.0395,21.8839
16.1440,21.9884
16.1440,21.9884
16.2260,22.1112
16.2260,22.1112
16.2826,22.2477
16.2826,22.2477
16.3114,22.3926
21.4959,22.3926
21.4959,18.0626
16.3114,18.0626
16.3114,18.5365
15.8614,18.5365
15.8614,18.8365
16.3114,18.8365
16.3114,19.3104
16.2826,19.4553
16.2826,19.4553
16.2260,19.5917
16.2260,19.5918
16.1440,19.7146
16.1440,19.7146
16.0395,19.8191
16.0395,19.8191
15.9167,19.9011
15.9167,19.9011
15.7802,19.9577
15.7802,19.9577
15.7114,19.9713
15.7114,19.9713
15.7114,19.4963
15.6772,19.5160
15.6009,19.5365
15.5219,19.5365
15.4456,19.5160
15.4114,19.4963
15.4114,19.9713
15.3426,19.9577
15.3426,19.9577
15.2061,19.9011
15.2061,19.9011
15.0833,19.8191
15.0833,19.8191
14.9788,19.7146
14.9788,19.7146
14.8968,19.5918
14.8968,19.5917
14.8531,19.4864
14.8093,19.4320
14.7430,19.4099
14.6753,19.4272
14.6312,19.4719
14.5919,19.5399
14.5919,19.5399
14.5919,19.5399
14.4848,19.6470
14.3535,19.7228
14.2072,19.7620
14.2072,19.7620
14.0556,19.7620
14.0556,19.7620
13.9093,19.7228
13.7780,19.6470
13.6709,19.5399
13.5951,19.4086
13.5559,19.2623
13.5559,19.1107
8.9269,19.1107
8.9269,19.2623
8.8877,19.4086
8.8742,19.4320
8.8119,19.5399
8.7048,19.6470
8.5735,19.7228
8.4272,19.7620
8.4272,19.7620
8.2756,19.7620
8.2756,19.7620
8.1293,19.7228
7.9980,19.6470
7.8909,19.5399
7.8516,19.4719
7.8011,19.4236
7.7325,19.4104
7.6676,19.4364
7.6297,19.4864
7.5860,19.5917
7.5860,19.5918
7.5040,19.7146
7.5040,19.7146
7.3995,19.8191
7.3995,19.8191
7.2767,19.9011
7.2767,19.9011
7.1402,19.9577
7.1402,19.9577
7.0714,19.9713
7.0714,19.9713
7.0714,19.4963
7.0372,19.5160
6.9609,19.5365
6.8819,19.5365
6.8056,19.5160
6.7714,19.4963
6.7714,19.9713
6.7026,19.9577
6.7026,19.9577
6.5661,19.9011
6.5661,19.9011
6.4433,19.8191
6.4433,19.8191
6.3388,19.7146
6.3388,19.7146
6.2568,19.5918
6.2568,19.5917
6.2002,19.4553
6.2002,19.4553
6.1714,19.3104
6.1714,19.3104
6.1714,18.8365
6.6214,18.8365
6.6214,18.5365
6.1714,18.5365
6.1714,18.0626
6.1714,18.0626
6.2002,17.9177
6.2002,17.9177
6.2568,17.7812
6.2568,17.7812
6.3388,17.6584
6.3388,17.6584
6.4433,17.5539
6.4433,17.5539
6.5661,17.4719
6.5661,17.4719
6.7026,17.4153
6.7026,17.4153
6.7714,17.4016
6.7714,17.8767
6.8056,17.8569
6.8819,17.8365
6.9609,17.8365
7.0372,17.8569
7.0714,17.8767
7.0714,17.4016
7.0714,17.4016
7.1402,17.4153
7.1402,17.4153
7.2767,17.4719
7.2767,17.4719
7.3995,17.5539
7.3995,17.5539
7.5040,17.6584
7.5040,17.6584
7.5860,17.7812
7.5860,17.7812
7.6426,17.9177
7.6426,17.9177
7.6714,18.0626
7.6714,18.5365
7.2214,18.5365
7.2214,18.8365
7.6714,18.8365
7.6950,18.8601
7.7564,18.8936
7.8261,18.8886
7.8820,18.8468
7.8901,18.8345
7.8902,18.8343
7.8909,18.8331
7.9980,18.7260
8.0636,18.6881
8.1293,18.6502
8.2024,18.6306
8.2756,18.6110
8.4272,18.6110
8.5735,18.6502
8.7048,18.7260
8.7048,18.7260
8.8119,18.8331
8.8119,18.8331
8.8877,18.9644
8.9269,19.1107
13.5559,19.1107
13.5951,18.9644
13.6709,18.8331
13.7780,18.7260
13.8437,18.6881
13.9093,18.6502
13.9825,18.6306
14.0556,18.6110
14.2072,18.6110
14.3535,18.6502
14.4848,18.7260
14.4848,18.7260
14.5919,18.8331
14.5919,18.8331
14.5927,18.8345
14.5936,18.8354
14.5969,18.8396
14.5975,18.8391
14.6433,18.8827
14.7119,18.8959
14.7767,18.8699
14.7878,18.8601
14.8114,18.8365
15.2614,18.8365
15.2614,18.5365
14.8114,18.5365
14.8114,18.0626
14.8114,18.0626
14.8402,17.9177
14.8402,17.9177
14.8968,17.7812
14.8968,17.7812
14.9788,17.6584
14.9788,17.6584
15.0833,17.5539
15.0833,17.5539
15.2061,17.4719
15.2061,17.4719
15.3426,17.4153
15.3426,17.4153
15.4114,17.4016
15.4114,17.8767
15.4456,17.8569
15.5219,17.8365
15.6009,17.8365
15.6772,17.8569
15.7114,17.8767
15.7114,17.4016
15.7114,17.4016
15.7802,17.4153
15.7802,17.4153
15.9167,17.4719
15.9167,17.4719
16.0395,17.5539
16.0395,17.5539
16.1440,17.6584
16.1440,17.6584
16.2260,17.7812
16.2260,17.7812
16.2826,17.9177
16.2826,17.9177
16.3114,18.0626
21.4959,18.0626
21.4959,15.0730
4.5469,15.0730
4.5469,15.2800
4.5065,15.4829
4.5065,15.4829
4.4273,15.6741
4.3124,15.8462
4.1661,15.9925
4.1661,15.9925
3.9940,16.1074
3.8028,16.1866
3.5999,16.2270
3.5999,16.2270
3.5999,16.2270
3.3929,16.2270
3.3929,16.2270
3.1900,16.1866
2.9988,16.1074
2.8267,15.9925
2.6804,15.8461
2.5655,15.6741
2.4863,15.4829
2.4459,15.2800
2.4459,15.0730
2.4863,14.8701
2.5655,14.6789
2.6804,14.5068
2.6804,14.5068
2.8267,14.3605
2.9128,14.3030
2.9988,14.2456
3.1900,14.1664
3.1900,14.1664
3.3929,14.1260
3.3929,14.1260
3.5999,14.1260
3.5999,14.1260
3.8028,14.1664
3.8028,14.1664
3.9940,14.2456
4.1661,14.3605
4.3124,14.5068
4.4273,14.6789
4.5065,14.8701
4.5065,14.8701
4.5469,15.0730
21.4959,15.0730
21.4959,12.5330
4.5469,12.5330
4.5469,12.7400
4.5065,12.9429
4.5065,12.9429
4.4273,13.1341
4.3124,13.3062
4.1661,13.4525
4.1661,13.4525
3.9940,13.5674
3.8028,13.6466
3.5999,13.6870
3.5999,13.6870
3.5999,13.6870
3.3929,13.6870
3.3929,13.6870
3.1900,13.6466
2.9988,13.5674
2.8267,13.4525
2.6804,13.3061
2.5655,13.1341
2.4863,12.9429
2.4459,12.7400
2.4459,12.5330
2.4863,12.3301
2.5655,12.1389
2.6804,11.9668
2.6804,11.9668
2.8267,11.8205
2.9128,11.7630
2.9988,11.7056
3.1900,11.6264
3.1900,11.6264
3.3929,11.5860
3.3929,11.5860
3.5999,11.5860
3.5999,11.5860
3.8028,11.6264
3.8028,11.6264
3.9940,11.7056
4.1661,11.8205
4.3124,11.9668
4.4273,12.1389
4.5065,12.3301
4.5065,12.3301
4.5469,12.5330
21.4959,12.5330
21.4959,10.0099
4.5964,10.0099
4.5964,10.1831
4.5693,10.3541
4.5158,10.5188
4.4372,10.6730
4.3732,10.7611
4.3732,10.7611
3.9401,10.3280
3.8965,10.4035
3.8034,10.4966
3.7279,10.5402
4.1610,10.9733
4.1610,10.9733
4.0729,11.0373
3.9187,11.1159
3.7540,11.1694
3.5830,11.1965
3.4098,11.1965
3.2388,11.1694
3.0741,11.1159
2.9199,11.0373
2.8318,10.9733
2.8318,10.9733
3.2649,10.5402
3.1894,10.4966
3.0963,10.4035
3.0527,10.3280
2.6196,10.7611
2.6196,10.7611
2.5556,10.6730
2.4770,10.5188
2.4235,10.3541
2.3964,10.1831
2.3964,10.0099
2.4235,9.8389
2.4770,9.6742
2.5556,9.5200
2.6196,9.4318
2.6196,9.4318
3.0527,9.8650
3.0963,9.7895
3.1894,9.6964
3.2649,9.6528
2.8318,9.2197
2.8318,9.2197
2.9199,9.1557
3.0741,9.0771
3.2388,9.0236
3.4098,8.9965
3.5830,8.9965
3.7540,9.0236
3.9187,9.0771
4.0729,9.1557
4.1610,9.2197
3.7279,9.6528
3.8034,9.6964
3.8965,9.7895
3.9401,9.8650
4.3732,9.4318
4.4372,9.5200
4.5158,9.6742
4.5693,9.8389
4.5964,10.0099
21.4959,10.0099
21.4959,6.6867
4.5469,6.6867
4.5469,8.4262
4.5353,8.4847
4.5353,8.4847
4.4910,8.5510
4.4246,8.5954
4.4246,8.5954
4.3662,8.6070
4.3662,8.6070
4.3661,8.6070
2.6266,8.6070
2.6266,8.6070
2.6118,8.6040
2.5682,8.5954
2.5682,8.5954
2.5682,8.5954
2.5018,8.5510
2.4575,8.4847
2.4575,8.4847
2.4575,8.4847
2.4459,8.4262
2.4459,8.4262
2.4459,6.6867
2.4459,6.6867
2.4575,6.6283
2.4575,6.6283
2.5018,6.5619
2.5682,6.5176
2.5682,6.5176
2.6266,6.5060
2.6267,6.5060
4.3661,6.5060
4.3662,6.5060
4.4246,6.5176
4.4246,6.5176
4.4910,6.5619
4.5353,6.6283
4.5353,6.6283
4.5469,6.6867
21.4959,6.6867
21.4959,2.6267
15.2269,2.6267
15.2269,4.3662
15.2153,4.4247
15.2153,4.4247
15.1710,4.4910
15.1046,4.5354
15.1046,4.5354
15.0462,4.5470
15.0461,4.5470
15.0461,4.5470
13.3066,4.5470
13.3066,4.5470
13.2918,4.5440
13.2482,4.5354
13.2482,4.5354
13.2482,4.5354
13.1818,4.4910
13.1375,4.4247
13.1375,4.4247
13.1375,4.4247
13.1259,4.3662
13.1259,4.3662
13.1259,3.4099
12.7364,3.4099
12.7364,3.5831
12.7093,3.7541
12.6558,3.9188
12.5772,4.0730
12.5132,4.1611
12.5132,4.1611
12.0801,3.7280
12.0365,3.8035
11.9434,3.8966
11.8679,3.9402
12.3010,4.3733
12.3010,4.3733
12.2129,4.4373
12.0587,4.5159
11.8940,4.5694
11.7230,4.5965
11.5498,4.5965
11.3788,4.5694
11.2141,4.5159
11.0599,4.4373
10.9718,4.3733
10.9718,4.3733
11.4049,3.9402
11.3294,3.8966
11.2363,3.8035
11.1927,3.7280
10.7596,4.1611
10.7596,4.1611
10.6956,4.0730
10.6170,3.9188
10.5635,3.7541
10.5364,3.5831
10.5364,3.4099
10.5370,3.4063
10.5370,3.4063
10.5391,3.3930
10.1469,3.3930
10.1469,3.6000
10.1065,3.8029
10.1065,3.8029
10.0273,3.9941
9.9124,4.1662
9.7661,4.3125
9.7661,4.3125
9.5940,4.4274
9.4028,4.5066
9.2583,4.5354
9.1999,4.5470
9.1999,4.5470
9.1999,4.5470
8.9929,4.5470
8.9929,4.5470
8.7900,4.5066
8.5988,4.4274
8.4267,4.3125
8.2804,4.1661
8.1655,3.9941
8.0863,3.8029
8.0459,3.6000
8.0459,3.3930
8.0459,3.3930
7.6069,3.3930
7.6069,3.6000
7.5665,3.8029
7.5665,3.8029
7.4873,3.9941
7.3724,4.1662
7.2261,4.3125
7.2261,4.3125
7.0540,4.4274
6.8628,4.5066
6.7183,4.5354
6.6599,4.5470
6.6599,4.5470
6.6599,4.5470
6.4529,4.5470
6.4529,4.5470
6.2500,4.5066
6.0588,4.4274
5.8867,4.3125
5.7404,4.1661
5.6255,3.9941
5.5463,3.8029
5.5059,3.6000
5.5059,3.3930
5.5463,3.1901
5.6255,2.9989
5.7404,2.8268
5.7404,2.8268
5.8867,2.6805
6.0547,2.5683
6.0588,2.5656
6.2500,2.4864
6.2500,2.4864
6.4529,2.4460
6.4529,2.4460
6.6599,2.4460
6.6599,2.4460
6.8628,2.4864
6.8628,2.4864
7.0540,2.5656
7.2261,2.6805
7.3724,2.8268
7.4873,2.9989
7.5665,3.1901
7.5665,3.1901
7.6069,3.3930
8.0459,3.3930
8.0863,3.1901
8.1655,2.9989
8.2804,2.8268
8.2804,2.8268
8.4267,2.6805
8.5947,2.5683
8.5988,2.5656
8.7900,2.4864
8.7900,2.4864
8.9929,2.4460
8.9929,2.4460
9.1999,2.4460
9.1999,2.4460
9.4028,2.4864
9.4028,2.4864
9.5940,2.5656
9.7661,2.6805
9.9124,2.8268
10.0273,2.9989
10.1065,3.1901
10.1065,3.1901
10.1469,3.3930
10.5391,3.3930
10.5635,3.2389
10.6170,3.0742
10.6956,2.9200
10.7596,2.8318
10.7596,2.8318
11.1927,3.2650
11.2363,3.1895
11.3294,3.0964
11.4049,3.0528
10.9718,2.6197
10.9718,2.6197
11.0599,2.5557
11.2141,2.4771
11.3788,2.4236
11.5498,2.3965
11.7230,2.3965
11.8940,2.4236
12.0587,2.4771
12.2129,2.5557
12.3010,2.6197
11.8679,3.0528
11.9434,3.0964
12.0365,3.1895
12.0801,3.2650
12.5132,2.8318
12.5772,2.9200
12.6558,3.0742
12.7093,3.2389
12.7364,3.4099
13.1259,3.4099
13.1259,2.6267
13.1259,2.6267
13.1375,2.5683
13.1375,2.5683
13.1818,2.5019
13.2482,2.4576
13.2482,2.4576
13.3066,2.4460
13.3067,2.4460
15.0461,2.4460
15.0462,2.4460
15.1046,2.4576
15.1046,2.4576
15.1710,2.5019
15.2153,2.5683
15.2153,2.5683
15.2269,2.6267
21.4959,2.6267
21.4959,0.6245
21.4762,0.5575
21.4234,0.5117
21.3719,0.5005
0.6209,0.5005
Z" /> 
</g>
<g style="fill:none; 
stroke:#E8B2A7; stroke-width:0.1000; stroke-opacity:1; 
stroke-linecap:round; stroke-linejoin:round;">
<text x="4.9964" y="10.2965"
textLength="2.0086" font-size="0.8000" lengthAdjust="spacingAndGlyphs"
text-anchor="start" opacity="0" stroke-opacity="0">GND</text>
<g class="stroked-text"><desc>GND</desc>
<path d="M5.5193 9.6464
L5.4622 9.6179
" />
<path d="M5.4622 9.6179
L5.3765 9.6179
" />
<path d="M5.3765 9.6179
L5.2908 9.6464
" />
<path d="M5.2908 9.6464
L5.2336 9.7036
" />
<path d="M5.2336 9.7036
L5.2050 9.7607
" />
<path d="M5.2050 9.7607
L5.1765 9.8750
" />
<path d="M5.1765 9.8750
L5.1765 9.9607
" />
<path d="M5.1765 9.9607
L5.2050 10.0750
" />
<path d="M5.2050 10.0750
L5.2336 10.1322
" />
<path d="M5.2336 10.1322
L5.2908 10.1893
" />
<path d="M5.2908 10.1893
L5.3765 10.2179
" />
<path d="M5.3765 10.2179
L5.4336 10.2179
" />
<path d="M5.4336 10.2179
L5.5193 10.1893
" />
<path d="M5.5193 10.1893
L5.5479 10.1607
" />
<path d="M5.5479 10.1607
L5.5479 9.9607
" />
<path d="M5.5479 9.9607
L5.4336 9.9607
" />
<path d="M5.8050 10.2179
L5.8050 9.6179
" />
<path d="M5.8050 9.6179
L6.1479 10.2179
" />
<path d="M6.1479 10.2179
L6.1479 9.6179
" />
<path d="M6.4336 10.2179
L6.4336 9.6179
" />
<path d="M6.4336 9.6179
L6.5765 9.6179
" />
<path d="M6.5765 9.6179
L6.6622 9.6464
" />
<path d="M6.6622 9.6464
L6.7193 9.7036
" />
<path d="M6.7193 9.7036
L6.7479 9.7607
" />
<path d="M6.7479 9.7607
L6.7765 9.8750
" />
<path d="M6.7765 9.8750
L6.7765 9.9607
" />
<path d="M6.7765 9.9607
L6.7479 10.0750
" />
<path d="M6.7479 10.0750
L6.7193 10.1322
" />
<path d="M6.7193 10.1322
L6.6622 10.1893
" />
<path d="M6.6622 10.1893
L6.5765 10.2179
" />
<path d="M6.5765 10.2179
L6.4336 10.2179
" />
</g><text x="4.9964" y="13.0465"
textLength="2.8657" font-size="0.8000" lengthAdjust="spacingAndGlyphs"
text-anchor="start" opacity="0" stroke-opacity="0">GPIO1</text>
<g class="stroked-text"><desc>GPIO1</desc>
<path d="M5.5193 12.3964
L5.4622 12.3679
" />
<path d="M5.4622 12.3679
L5.3765 12.3679
" />
<path d="M5.3765 12.3679
L5.2908 12.3964
" />
<path d="M5.2908 12.3964
L5.2336 12.4536
" />
<path d="M5.2336 12.4536
L5.2050 12.5107
" />
<path d="M5.2050 12.5107
L5.1765 12.6250
" />
<path d="M5.1765 12.6250
L5.1765 12.7107
" />
<path d="M5.1765 12.7107
L5.2050 12.8250
" />
<path d="M5.2050 12.8250
L5.2336 12.8822
" />
<path d="M5.2336 12.8822
L5.2908 12.9393
" />
<path d="M5.2908 12.9393
L5.3765 12.9679
" />
<path d="M5.3765 12.9679
L5.4336 12.9679
" />
<path d="M5.4336 12.9679
L5.5193 12.9393
" />
<path d="M5.5193 12.9393
L5.5479 12.9107
" />
<path d="M5.5479 12.9107
L5.5479 12.7107
" />
<path d="M5.5479 12.7107
L5.4336 12.7107
" />
<path d="M5.8050 12.9679
L5.8050 12.3679
" />
<path d="M5.8050 12.3679
L6.0336 12.3679
" />
<path d="M6.0336 12.3679
L6.0908 12.3964
" />
<path d="M6.0908 12.3964
L6.1193 12.4250
" />
<path d="M6.1193 12.4250
L6.1479 12.4822
" />
<path d="M6.1479 12.4822
L6.1479 12.5679
" />
<path d="M6.1479 12.5679
L6.1193 12.6250
" />
<path d="M6.1193 12.6250
L6.0908 12.6536
" />
<path d="M6.0908 12.6536
L6.0336 12.6822
" />
<path d="M6.0336 12.6822
L5.8050 12.6822
" />
<path d="M6.4050 12.9679
L6.4050 12.3679
" />
<path d="M6.8050 12.3679
L6.9193 12.3679
" />
<path d="M6.9193 12.3679
L6.9765 12.3964
" />
<path d="M6.9765 12.3964
L7.0336 12.4536
" />
<path d="M7.0336 12.4536
L7.0622 12.5679
" />
<path d="M7.0622 12.5679
L7.0622 12.7679
" />
<path d="M7.0622 12.7679
L7.0336 12.8822
" />
<path d="M7.0336 12.8822
L6.9765 12.9393
" />
<path d="M6.9765 12.9393
L6.9193 12.9679
" />
<path d="M6.9193 12.9679
L6.8050 12.9679
" />
<path d="M6.8050 12.9679
L6.7479 12.9393
" />
<path d="M6.7479 12.9393
L6.6908 12.8822
" />
<path d="M6.6908 12.8822
L6.6622 12.7679
" />
<path d="M6.6622 12.7679
L6.6622 12.5679
" />
<path d="M6.6622 12.5679
L6.6908 12.4536
" />
<path d="M6.6908 12.4536
L6.7479 12.3964
" />
<path d="M6.7479 12.3964
L6.8050 12.3679
" />
<path d="M7.6336 12.9679
L7.2908 12.9679
" />
<path d="M7.4622 12.9679
L7.4622 12.3679
" />
<path d="M7.4622 12.3679
L7.4050 12.4536
" />
<path d="M7.4050 12.4536
L7.3479 12.5107
" />
<path d="M7.3479 12.5107
L7.2908 12.5393
" />
</g><text x="4.9964" y="15.5465"
textLength="2.8657" font-size="0.8000" lengthAdjust="spacingAndGlyphs"
text-anchor="start" opacity="0" stroke-opacity="0">GPIO2</text>
<g class="stroked-text"><desc>GPIO2</desc>
<path d="M5.5193 14.8964
L5.4622 14.8679
" />
<path d="M5.4622 14.8679
L5.3765 14.8679
" />
<path d="M5.3765 14.8679
L5.2908 14.8964
" />
<path d="M5.2908 14.8964
L5.2336 14.9536
" />
<path d="M5.2336 14.9536
L5.2050 15.0107
" />
<path d="M5.2050 15.0107
L5.1765 15.1250
" />
<path d="M5.1765 15.1250
L5.1765 15.2107
" />
<path d="M5.1765 15.2107
L5.2050 15.3250
" />
<path d="M5.2050 15.3250
L5.2336 15.3822
" />
<path d="M5.2336 15.3822
L5.2908 15.4393
" />
<path d="M5.2908 15.4393
L5.3765 15.4679
" />
<path d="M5.3765 15.4679
L5.4336 15.4679
" />
<path d="M5.4336 15.4679
L5.5193 15.4393
" />
<path d="M5.5193 15.4393
L5.5479 15.4107
" />
<path d="M5.5479 15.4107
L5.5479 15.2107
" />
<path d="M5.5479 15.2107
L5.4336 15.2107
" />
<path d="M5.8050 15.4679
L5.8050 14.8679
" />
<path d="M5.8050 14.8679
L6.0336 14.8679
" />
<path d="M6.0336 14.8679
L6.0908 14.8964
" />
<path d="M6.0908 14.8964
L6.1193 14.9250
" />
<path d="M6.1193 14.9250
L6.1479 14.9822
" />
<path d="M6.1479 14.9822
L6.1479 15.0679
" />
<path d="M6.1479 15.0679
L6.1193 15.1250
" />
<path d="M6.1193 15.1250
L6.0908 15.1536
" />
<path d="M6.0908 15.1536
L6.0336 15.1822
" />
<path d="M6.0336 15.1822
L5.8050 15.1822
" />
<path d="M6.4050 15.4679
L6.4050 14.8679
" />
<path d="M6.8050 14.8679
L6.9193 14.8679
" />
<path d="M6.9193 14.8679
L6.9765 14.8964
" />
<path d="M6.9765 14.8964
L7.0336 14.9536
" />
<path d="M7.0336 14.9536
L7.0622 15.0679
" />
<path d="M7.0622 15.0679
L7.0622 15.2679
" />
<path d="M7.0622 15.2679
L7.0336 15.3822
" />
<path d="M7.0336 15.3822
L6.9765 15.4393
" />
<path d="M6.9765 15.4393
L6.9193 15.4679
" />
<path d="M6.9193 15.4679
L6.8050 15.4679
" />
<path d="M6.8050 15.4679
L6.7479 15.4393
" />
<path d="M6.7479 15.4393
L6.6908 15.3822
" />
<path d="M6.6908 15.3822
L6.6622 15.2679
" />
<path d="M6.6622 15.2679
L6.6622 15.0679
" />
<path d="M6.6622 15.0679
L6.6908 14.9536
" />
<path d="M6.6908 14.9536
L6.7479 14.8964
" />
<path d="M6.7479 14.8964
L6.8050 14.8679
" />
<path d="M7.2908 14.9250
L7.3193 14.8964
" />
<path d="M7.3193 14.8964
L7.3765 14.8679
" />
<path d="M7.3765 14.8679
L7.5193 14.8679
" />
<path d="M7.5193 14.8679
L7.5765 14.8964
" />
<path d="M7.5765 14.8964
L7.6050 14.9250
" />
<path d="M7.6050 14.9250
L7.6336 14.9822
" />
<path d="M7.6336 14.9822
L7.6336 15.0393
" />
<path d="M7.6336 15.0393
L7.6050 15.1250
" />
<path d="M7.6050 15.1250
L7.2622 15.4679
" />
<path d="M7.2622 15.4679
L7.6336 15.4679
" />
</g><text x="4.9166" y="7.7965"
textLength="2.5800" font-size="0.8000" lengthAdjust="spacingAndGlyphs"
text-anchor="start" opacity="0" stroke-opacity="0">+3V3</text>
<g class="stroked-text"><desc>+3V3</desc>
<path d="M5.1252 7.4893
L5.5823 7.4893
" />
<path d="M5.3538 7.7179
L5.3538 7.2607
" />
<path d="M5.8109 7.1179
L6.1823 7.1179
" />
<path d="M6.1823 7.1179
L5.9823 7.3464
" />
<path d="M5.9823 7.3464
L6.0681 7.3464
" />
<path d="M6.0681 7.3464
L6.1252 7.3750
" />
<path d="M6.1252 7.3750
L6.1538 7.4036
" />
<path d="M6.1538 7.4036
L6.1823 7.4607
" />
<path d="M6.1823 7.4607
L6.1823 7.6036
" />
<path d="M6.1823 7.6036
L6.1538 7.6607
" />
<path d="M6.1538 7.6607
L6.1252 7.6893
" />
<path d="M6.1252 7.6893
L6.0681 7.7179
" />
<path d="M6.0681 7.7179
L5.8966 7.7179
" />
<path d="M5.8966 7.7179
L5.8395 7.6893
" />
<path d="M5.8395 7.6893
L5.8109 7.6607
" />
<path d="M6.3538 7.1179
L6.5538 7.7179
" />
<path d="M6.5538 7.7179
L6.7538 7.1179
" />
<path d="M6.8966 7.1179
L7.2681 7.1179
" />
<path d="M7.2681 7.1179
L7.0681 7.3464
" />
<path d="M7.0681 7.3464
L7.1538 7.3464
" />
<path d="M7.1538 7.3464
L7.2109 7.3750
" />
<path d="M7.2109 7.3750
L7.2395 7.4036
" />
<path d="M7.2395 7.4036
L7.2681 7.4607
" />
<path d="M7.2681 7.4607
L7.2681 7.6036
" />
<path d="M7.2681 7.6036
L7.2395 7.6607
" />
<path d="M7.2395 7.6607
L7.2109 7.6893
" />
<path d="M7.2109 7.6893
L7.1538 7.7179
" />
<path d="M7.1538 7.7179
L6.9823 7.7179
" />
<path d="M6.9823 7.7179
L6.9252 7.6893
" />
<path d="M6.9252 7.6893
L6.8966 7.6607
" />
</g><path style="fill:none; 
stroke:#D0D2CD; stroke-width:0.0500; stroke-opacity:1; 
stroke-linecap:round; stroke-linejoin:round;fill:none"
d="M 21.9964,0.0000
-0.0036,0.0000
-0.0036,25.5000
21.9964,25.5000
Z" /> 
</g>
<g style="fill:#FFFFFF; fill-opacity:1.0000; stroke:none;">
<circle cx="8.7464" cy="13.5465" r="0.1500" /> 
<circle cx="14.2464" cy="6.7965" r="0.1500" /> 
<circle cx="7.1216" cy="13.6557" r="0.1500" /> 
<circle cx="7.9964" cy="17.2965" r="0.1500" /> 
<circle cx="18.2464" cy="11.5465" r="0.1500" /> 
<circle cx="10.4964" cy="13.5465" r="0.1500" /> 
<circle cx="15.4964" cy="16.5465" r="0.1500" /> 
<circle cx="19.2464" cy="13.2965" r="0.1500" /> 
<circle cx="14.4964" cy="17.2965" r="0.1500" /> 
</g>
<g style="fill:#FFFFFF; fill-opacity:1.0000; stroke:none;">
<circle cx="14.1764" cy="3.4965" r="0.5000" /> 
</g>
<g style="fill:#FFFFFF; fill-opacity:1.0000; stroke:none;">
<circle cx="11.6364" cy="3.4965" r="0.5000" /> 
</g>
<g style="fill:#FFFFFF; fill-opacity:1.0000; stroke:none;">
<circle cx="9.0964" cy="3.4965" r="0.5000" /> 
</g>
<g style="fill:#FFFFFF; fill-opacity:1.0000; stroke:none;">
<circle cx="6.5564" cy="3.4965" r="0.5000" /> 
</g>
<g style="fill:#000000; fill-opacity:1.0000; stroke:none;">
<circle cx="14.1314" cy="19.1865" r="0.3250" /> 
<circle cx="8.3514" cy="19.1865" r="0.3250" /> 
</g>
<g style="fill:none; 
stroke:#FFFFFF; stroke-width:0.6000; stroke-opacity:1; 
stroke-linecap:round; stroke-linejoin:round;">
<path d="M15.5614 18.1365
L15.5614 19.2365
" />
</g>
<g style="fill:none; 
stroke:#FFFFFF; stroke-width:0.6000; stroke-opacity:1; 
stroke-linecap:round; stroke-linejoin:round;">
<path d="M15.5614 22.4665
L15.5614 23.2665
" />
</g>
<g style="fill:none; 
stroke:#FFFFFF; stroke-width:0.6000; stroke-opacity:1; 
stroke-linecap:round; stroke-linejoin:round;">
<path d="M6.9214 18.1365
L6.9214 19.2365
" />
</g>
<g style="fill:none; 
stroke:#FFFFFF; stroke-width:0.6000; stroke-opacity:1; 
stroke-linecap:round; stroke-linejoin:round;">
<path d="M6.9214 22.4665
L6.9214 23.2665
" />
</g>
<g style="fill:#FFFFFF; fill-opacity:1.0000; stroke:none;">
<circle cx="3.4964" cy="7.5565" r="0.5000" /> 
</g>
<g style="fill:#FFFFFF; fill-opacity:1.0000; stroke:none;">
<circle cx="3.4964" cy="10.0965" r="0.5000" /> 
</g>
<g style="fill:#FFFFFF; fill-opacity:1.0000; stroke:none;">
<circle cx="3.4964" cy="12.6365" r="0.5000" /> 
</g>
<g style="fill:#FFFFFF; fill-opacity:1.0000; stroke:none;">
<circle cx="3.4964" cy="15.1765" r="0.5000" /> 
</g> 
</g><text x="3" y="32" font-family="Arial,sans-serif" font-size="0.65" fill="#b7c5d5">USB-C 3.3V Interface Board · 22 × 25.5 mm</text><text x="3" y="33.2" font-family="Arial,sans-serif" font-size="0.6" fill="#b7c5d5">KiCad source export · PCB layout preview</text></svg>